<svg width="352" height="151" viewBox="0 0 352 151" fill="none" xmlns="http://www.w3.org/2000/svg">
<path d="M175.709 50.8445C178.143 64.853 177.356 79.2957 177.735 93.4756C178.241 112.426 180.012 131.079 181.106 149.972" stroke="black" stroke-linecap="round" stroke-linejoin="round"/>
<path d="M256.564 36.4908C262.869 45.2744 267.631 55.0703 273.369 64.2784C283.735 80.9138 294.307 97.4619 305.874 113.187C313.05 122.943 319.229 133.454 326.137 143.422C327.36 145.187 333.612 151.755 328.504 148.647" stroke="black" stroke-linecap="round" stroke-linejoin="round"/>
<path d="M1.13672 130.77C21.232 106.519 41.4938 81.1358 62.9246 58.2589C71.8123 48.7716 79.2185 40.9349 88.1107 31.4845C91.3607 28.0305 95.8365 23.7147 99.1596 20.3604" stroke="black" stroke-linecap="round" stroke-linejoin="round"/>
<path d="M53.5859 25.1671C54.6713 24.9451 112.336 0.547237 112.667 6.89004C113.522 23.2424 91.8151 68.3735 98.7027 53.7249" stroke="black" stroke-linecap="round" stroke-linejoin="round"/>
<path d="M248.284 66.1213C248.196 46.9589 243.576 27.3299 240.749 8.40565C240.16 4.46262 244.501 9.27333 245.876 10.3668C252.225 15.4141 257.912 21.29 264.434 26.1876C272.211 32.0273 279.506 36.7426 288.023 40.9014" stroke="black" stroke-linecap="round" stroke-linejoin="round"/>
<path d="M158.492 64.9352C160.051 53.9944 163.339 42.8483 166.274 32.2417C166.929 29.8771 169.016 18.5877 171.707 18.9993C175.349 19.5562 177.453 24.3075 179.306 27.1726C182.28 31.7718 185.51 36.1614 188.52 40.8473C189.536 42.4303 201.187 57.0094 198.798 57.8621" stroke="black" stroke-linecap="round" stroke-linejoin="round"/>
</svg>
