<svg width="15" height="20" viewBox="0 0 15 20" fill="none" xmlns="http://www.w3.org/2000/svg">
<path d="M2.17742 0.100098C0.982154 0.100098 0 0.860449 0 1.82737V18.2365C5.58871e-05 18.4563 0.0538374 18.7036 0.264617 18.8842C0.475396 19.0648 0.741157 19.1 0.967742 19.1001C1.05554 19.1004 1.14178 19.0794 1.21724 19.0394L7.5 15.7198L13.7828 19.0394C13.8582 19.0794 13.9445 19.1004 14.0323 19.1001C14.2588 19.1 14.5246 19.0648 14.7354 18.8842C14.9462 18.7036 14.9999 18.4563 15 18.2365V1.82737C15 0.860447 14.0178 0.100098 12.8226 0.100098H2.17742ZM2.17742 0.963734H12.8226C13.5823 0.963734 14.0323 1.38117 14.0323 1.82737V18.1622L7.7495 14.8426C7.67417 14.8022 7.58791 14.7808 7.5 14.7808C7.41209 14.7808 7.32583 14.8022 7.2505 14.8426L0.967742 18.1622V1.82737C0.967742 1.38117 1.41768 0.963734 2.17742 0.963734Z" fill="black"/>
<path d="M0.971774 1.40717C1.94186 1.39816 2.96125 1.22509 3.90898 1.20496C4.47336 1.19296 5.04649 1.18699 5.61021 1.21394C5.93795 1.22961 6.25887 1.32628 6.58536 1.32628C7.6356 1.32628 8.6862 1.33465 9.7364 1.32628C10.3237 1.3216 10.8942 1.20496 11.4799 1.20496C11.9217 1.20496 12.3634 1.20496 12.8052 1.20496C13.044 1.20496 13.4336 1.18892 13.5947 1.38694C13.6633 1.47123 13.8117 1.52671 13.8626 1.60938C13.971 1.78554 14.0969 1.84822 13.8344 2.02952C13.5938 2.19569 13.3757 2.27061 13.0684 2.30587C12.0375 2.42415 10.9426 2.33733 9.90558 2.33733C9.83406 2.33733 10.2149 2.28321 10.2486 2.27891C11.0735 2.17412 11.8952 2.03478 12.7183 1.91718C12.9797 1.87983 13.2425 1.81158 13.5078 1.81158C13.7452 1.81158 13.557 1.77246 13.4208 1.77114C12.2113 1.75946 11.0598 1.98752 9.86329 2.11265C8.96516 2.20658 8.18166 2.57832 7.29969 2.72153C6.86112 2.79274 6.47404 2.86307 6.02847 2.86307C5.66602 2.86307 5.32148 2.70506 4.96638 2.64514C4.86882 2.62868 4.14861 2.62042 4.56926 2.62042C5.72997 2.62042 6.86489 2.46361 8.01167 2.31486C8.47917 2.25422 8.94793 2.2263 9.41213 2.14411C9.49799 2.12891 9.608 2.06984 9.44738 2.05648C7.69628 1.91089 5.96068 2.2608 4.22385 2.35306C3.88634 2.37099 3.49367 1.85236 3.23695 1.69026C3.12216 1.61778 2.95423 1.58232 2.81634 1.61162C2.662 1.64442 3.01516 1.73915 3.02077 1.73969C3.88237 1.823 4.74159 1.7307 5.60081 1.7307C5.64129 1.7307 5.93034 1.72566 5.72065 1.73295C4.74448 1.76689 3.76146 1.84531 2.79989 2.01379C2.47613 2.07052 2.1497 2.12286 1.82709 2.18455C1.74322 2.20059 1.66671 2.23916 1.58506 2.19578C1.42277 2.10957 1.12632 1.99133 0.938877 1.99133C0.877144 1.99133 1.02054 2.08177 1.04697 2.13512C1.09307 2.22819 1.05637 2.39844 1.05637 2.49685C1.05637 2.68934 1.0021 2.87064 1.01407 3.06528C1.02361 3.22031 1.76681 2.95638 1.85764 2.92598C1.95743 2.89259 1.98899 2.87653 2.06207 2.81365C2.15649 2.73239 2.42202 2.78219 2.54377 2.78219C3.02547 2.78219 3.50717 2.78219 3.98887 2.78219C4.11965 2.78219 4.25331 2.78584 4.37423 2.84061C4.69141 2.98426 5.00463 3.06956 5.35174 3.13943C6.08127 3.28628 6.90045 3.27812 7.64511 3.26749C8.16894 3.26002 8.71466 3.16463 9.2406 3.12595C10.1525 3.05887 11.0441 2.83998 11.9546 2.77994C12.3383 2.75464 12.7143 2.73371 13.1013 2.74175C13.1583 2.74293 13.3253 2.75564 13.3644 2.80241C13.4218 2.871 13.6487 2.76407 13.7169 2.75074C13.8486 2.72497 14.0412 2.69132 14.0412 2.8451C14.0412 3.03716 13.9705 3.31782 13.9049 3.49666C13.6694 4.1388 12.7762 4.03589 12.199 4.03589C12.1303 4.03589 11.2227 4.04397 11.3436 3.83368C11.5825 3.41843 12.4628 3.30794 12.8968 3.30794C12.9209 3.30794 13.2906 3.40644 13.261 3.43825C13.2015 3.50229 12.8403 3.49084 12.7864 3.49666C12.4298 3.5352 12.0768 3.59852 11.7196 3.63147C10.6978 3.72574 9.67948 3.86772 8.65551 3.93478C8.35943 3.95418 8.09189 4.03849 7.80019 4.06734C7.49172 4.09786 7.17236 4.07633 6.86264 4.07633C6.27009 4.07633 5.75869 3.89128 5.18255 3.82469C4.84543 3.78573 4.51797 3.71517 4.17685 3.71235C3.89179 3.71 3.6015 3.72888 3.31684 3.71011C3.08755 3.69499 2.9143 3.53109 2.68945 3.51239C2.5377 3.49977 2.37841 3.50776 2.22655 3.51014C1.951 3.51446 1.68692 3.67527 1.43703 3.77302C1.32312 3.81757 0.97665 4.06641 1.09866 4.19766C1.28699 4.40024 1.0894 4.78552 1.24905 4.98178C1.37068 5.13131 2.0441 4.69622 2.21715 4.6515C2.25717 4.64116 2.48972 4.60788 2.48972 4.54141C2.48972 4.49977 2.02818 4.41071 1.97747 4.39987C1.93494 4.39077 1.35212 4.30671 1.6861 4.25832C2.44719 4.14806 3.27336 4.24017 4.03587 4.27854C4.27679 4.29066 4.54101 4.3782 4.77839 4.42233C5.47076 4.55106 6.17513 4.53081 6.87908 4.52119C7.50855 4.51259 8.11795 4.38645 8.72835 4.26057C9.06282 4.19159 9.41694 4.13985 9.7599 4.16171C10.057 4.18065 10.3672 4.2107 10.6505 4.30326C10.8639 4.37302 11.0154 4.53845 11.2215 4.61556C11.491 4.71641 11.9088 4.52962 12.1755 4.47176C12.3007 4.44459 12.5419 4.42356 12.6478 4.3392C12.7258 4.27706 12.8568 4.27854 12.9509 4.27854C13.2297 4.27854 13.5086 4.27854 13.7874 4.27854C13.9166 4.27854 14.2385 4.15765 14.3278 4.31898C14.4624 4.56209 14.2219 5.08819 14.0647 5.26712C13.8172 5.54881 13.3049 5.48972 12.9697 5.37047C12.943 5.36098 12.7664 5.29737 12.8381 5.2806C13.1825 5.20009 13.5243 5.106 13.8696 5.02896C13.9627 5.00819 14.054 4.98854 14.1446 4.96381C14.2225 4.94252 13.6275 4.77597 13.5618 4.77283C12.9742 4.74474 12.5213 4.92143 12.0157 5.18174C11.7766 5.30485 11.5302 5.45433 11.2543 5.4873C11.1974 5.49412 11.0387 5.51971 10.9935 5.46933C10.8115 5.26624 10.3989 5.18892 10.15 5.12333C10.1241 5.11651 9.69421 5.00925 9.82099 5.00649C10.0101 5.00239 10.2346 5.04369 10.4202 5.00425C10.504 4.98644 10.0218 4.88592 10.016 4.88517C9.34305 4.79821 8.67605 4.85454 8.02107 5.01998C7.02267 5.27214 5.98471 5.13825 4.97108 5.3525C4.39472 5.47432 3.74629 5.68143 3.14296 5.56369C3.05728 5.54697 2.68418 5.44968 2.88448 5.33902C3.11525 5.21153 3.45733 5.21299 3.71395 5.14804C3.78738 5.12946 4.39831 5.0352 4.32724 5.09637C4.11257 5.2811 2.36753 5.87373 2.36753 5.63334C2.36753 5.36002 2.92677 5.24766 3.03487 5.00649C3.08419 4.89646 2.9149 4.74319 2.81399 4.72565C2.58295 4.68548 2.28859 5.2601 2.16076 5.39743C2.04691 5.51974 1.92475 5.65315 1.78009 5.74344C1.70621 5.78955 1.59706 5.81064 1.53102 5.86476C1.48859 5.89954 1.55544 5.98623 1.49812 6.01754C1.39893 6.07174 1.22874 6.08673 1.11511 6.09618C0.958682 6.10919 0.90291 6.1497 0.971774 6.049C1.07011 5.90519 1.05637 5.71579 1.05637 5.55246C1.05637 5.40414 0.959418 5.65246 0.952976 5.68502C0.88627 6.02215 0.929478 6.39424 0.929478 6.73651C0.929478 6.98357 0.904369 7.22772 0.877783 7.47345C0.829862 7.91639 0.916368 7.39357 0.997621 7.22406C1.03069 7.15507 1.69086 5.87381 1.85059 6.02653C1.92031 6.0932 1.78293 6.39355 1.7566 6.45791C1.56552 6.92482 1.33704 7.38583 1.17385 7.86214C1.1071 8.05697 1.13522 8.2518 1.08926 8.44406C1.01809 8.7418 1.36471 8.2813 1.41823 8.21489C1.65674 7.91889 1.89591 7.59924 2.02917 7.24428C2.11261 7.02203 2.16076 6.73341 2.37693 6.58373C2.64399 6.39882 2.5518 6.67446 2.48502 6.86233C2.17083 7.74632 1.69276 8.56753 1.35949 9.44387C1.35838 9.44678 1.26687 9.65375 1.35009 9.57418C1.69409 9.24526 1.96427 8.80884 2.24065 8.43282C2.98301 7.42284 3.70457 6.33432 4.62331 5.45585C5.18408 4.91966 3.67211 6.70287 3.43433 7.42627C3.31883 7.77765 3.32955 8.16066 3.34269 8.52494C3.34733 8.65378 3.34446 8.81412 3.40378 8.93385C3.45867 9.04464 3.62041 8.79237 3.6928 8.6912C4.05404 8.18637 4.40813 7.68587 4.81599 7.21282C5.00423 6.99451 5.34994 6.6133 5.56322 6.40399C5.69366 6.27596 5.80934 6.07796 5.99557 6.06248C6.1388 6.05057 5.74847 7.34383 5.7371 7.38358C5.55457 8.02167 5.38649 8.66557 5.18255 9.29783C5.10532 9.53729 5.02762 9.78051 4.93348 10.0146C4.87533 10.1591 4.8689 10.0459 4.87943 9.93816C5.00115 8.69289 5.23211 7.53643 6.08016 6.55227C6.12086 6.50505 6.63538 6.06831 6.35039 6.11191C5.2272 6.28374 4.4391 7.26658 3.82439 8.08457C3.57331 8.41869 3.3407 8.76491 3.09126 9.10011C3.01968 9.1963 2.83173 9.49824 2.87508 9.3877C2.95099 9.19417 3.13147 9.01178 3.25105 8.84398C3.70591 8.20567 4.17311 7.57797 4.64681 6.9522C5.19571 6.22708 5.70687 5.48981 6.2 4.73014C6.56686 4.165 5.43197 5.84184 4.99457 6.35905C4.66563 6.74802 4.36939 7.15414 4.08286 7.57231C4.05878 7.60746 3.82423 8.014 3.80794 7.80373C3.75481 7.11788 4.24144 6.35755 4.48937 5.74119C4.57081 5.53872 5.10269 4.59175 4.52932 4.64252C4.18413 4.67308 3.82537 5.0067 3.58471 5.2087C3.29827 5.44914 3.05601 5.7171 2.85629 6.02653C2.69552 6.2756 2.47004 6.61728 2.56022 6.92524C2.56664 6.94718 2.65729 7.16419 2.6918 7.13419C2.80545 7.0354 2.85258 6.90613 2.98317 6.8129C3.3592 6.54444 3.80793 6.32342 4.23325 6.13437C4.553 5.99225 4.88158 5.8656 5.20135 5.72546C5.50073 5.59426 5.89471 5.64772 6.21645 5.65581C6.77269 5.66981 7.45647 5.68009 7.96938 5.9052C7.97825 5.9091 8.2127 6.03949 8.13621 6.05574C7.6746 6.15382 7.19655 5.88366 6.724 6.01754C6.70527 6.02285 6.42312 6.10941 6.41383 6.08944C6.38186 6.02066 7.97382 5.57724 8.14326 5.53673C8.6708 5.41063 9.13409 5.33003 9.67531 5.33003C10.0363 5.33003 10.3893 5.36173 10.7468 5.41091C11.0392 5.45114 11.1981 5.56685 11.4376 5.69176C11.907 5.93655 12.5267 5.87568 13.0637 5.92767C13.4287 5.96302 13.7955 6.03642 14.154 6.1164C14.368 6.16415 14.4355 6.1452 14.2526 6.30064C14.1522 6.38601 14.0144 6.39334 13.9143 6.48038C13.1475 7.14686 12.0258 6.53939 11.1886 6.33209C10.2145 6.09094 9.14467 6.2607 8.17616 6.43994C7.81314 6.50712 7.48332 6.66769 7.12346 6.73651C6.78193 6.80182 7.64645 6.78594 7.70385 6.78594C8.44147 6.78594 9.17442 6.79154 9.91028 6.8466C10.4175 6.88456 10.9236 6.94771 11.4329 6.94771C11.4517 6.94771 11.5081 6.94878 11.4893 6.94771C11.1252 6.92681 10.7609 6.86713 10.399 6.82638C9.22476 6.69414 7.96118 6.6253 6.82974 6.26469C6.48146 6.15368 7.13837 6.21975 7.19865 6.21975C7.96888 6.21975 8.70901 6.21148 9.46383 6.37253C9.63692 6.40946 10.09 6.47313 9.63301 6.45342C9.06516 6.42892 8.64868 6.679 8.11741 6.82413C8.08404 6.83325 7.52477 6.9838 7.62161 6.82638C7.67349 6.74206 7.8176 6.80716 7.7579 6.90502C7.67443 7.04184 7.57776 6.86249 7.57227 6.78369C7.56621 6.69686 7.58209 6.61564 7.58636 6.52981C7.59427 6.37105 7.20237 6.60612 7.18455 6.61518C6.50234 6.96223 6.13136 7.4496 5.7277 8.05312C5.65685 8.15905 5.54254 8.33149 5.58671 8.46877C5.61376 8.55283 5.70455 8.72266 5.81464 8.72266C5.91817 8.72266 5.98688 8.49649 6.00967 8.44855C6.27286 7.8949 6.53336 7.3387 6.80859 6.79043C6.83478 6.73827 7.22755 6.00595 7.23155 6.24671C7.24268 6.91696 6.74861 7.58522 6.49372 8.18343C6.19739 8.8789 5.9701 9.58275 5.75825 10.3044C5.73486 10.3841 5.64551 10.6069 5.77939 10.3291C6.20597 9.44392 6.6683 8.57447 7.10466 7.69363C7.25972 7.38065 7.41362 7.06658 7.56052 6.74999C7.57535 6.71803 7.6022 6.61936 7.57931 6.64664C7.48273 6.76178 7.27793 7.07061 7.21745 7.16789C6.50364 8.3161 5.97295 9.60706 5.81934 10.9402C5.79046 11.1909 5.76818 11.4433 5.75355 11.6951C5.75242 11.7146 5.74893 11.7719 5.7559 11.7536C5.78564 11.6753 5.80051 11.5926 5.82639 11.5131C6.12553 10.5948 6.5608 9.71208 7.06237 8.87993C7.40379 8.31347 7.65974 7.9424 8.07981 7.44649C8.23481 7.26351 8.5042 6.93312 8.7636 6.82638C8.90544 6.76801 8.92147 6.92589 8.90458 7.01511C8.8198 7.46288 8.4279 7.84146 8.13151 8.16995C7.36303 9.02165 6.56272 9.84442 6.03317 10.8571C6.03106 10.8611 5.87072 11.2074 5.96738 10.9604C6.2353 10.2758 6.58345 9.61857 6.96838 8.98778C7.44852 8.20094 8.0031 7.44884 8.60851 6.7455C8.90003 6.40682 9.23602 6.03363 9.64241 5.81309C9.8341 5.70906 9.64549 6.0164 9.63301 6.04001C9.28182 6.70446 8.79845 7.30583 8.37119 7.92505C7.78904 8.76874 7.24561 9.62951 6.7334 10.5133C6.67883 10.6075 6.30704 11.4305 6.18355 11.4413C6.12526 11.4463 6.2102 11.332 6.23055 11.2795C6.2997 11.1012 6.37237 10.9463 6.45613 10.7717C6.68101 10.303 6.92072 9.84259 7.09056 9.35175C7.11157 9.29103 7.31526 8.80213 7.19395 8.72266C7.13386 8.68328 6.88613 8.72947 6.87438 8.73164C6.38876 8.82157 5.92094 8.98244 5.45983 9.14954C4.97794 9.32417 4.51224 9.50596 4.01237 9.62811C3.85567 9.6664 3.68509 9.6914 3.93248 9.7C4.50519 9.71992 4.99627 9.94194 5.27654 10.4347C5.4765 10.7862 5.4982 10.974 5.09796 11.1447C4.96149 11.2029 3.96412 11.6384 3.92308 11.3581C3.85805 10.914 4.05604 10.3628 4.14631 9.93816C4.27312 9.34161 4.40677 8.74889 4.47527 8.14299C4.49802 7.9418 4.57669 7.61782 4.51757 7.41054C4.48812 7.3073 4.28449 7.49052 4.25205 7.51389C3.86549 7.79244 3.89413 8.21882 3.89018 8.65525C3.88157 9.60619 3.78259 10.6376 3.98417 11.5738C4.03539 11.8117 4.10761 12.0692 4.28494 12.2523C4.44496 12.4176 4.43824 11.8886 4.44003 11.8726C4.48976 11.4277 4.63945 10.7962 4.51522 10.3448C4.49353 10.266 4.04496 9.88324 4.05467 9.8775C4.17229 9.80787 4.49947 10.1112 4.54812 10.1516C4.86779 10.4173 5.24463 10.7317 5.33529 11.1469C5.44411 11.6453 5.19186 12.0347 5.03452 12.486C4.9928 12.6057 5.00098 12.8015 4.85359 12.8432C4.51661 12.9387 4.2435 12.1753 4.14866 11.994C3.6903 11.1174 3.4583 10.2454 3.21815 9.30232C3.17148 9.11904 3.04097 8.27283 2.7482 8.7586C2.24389 9.59537 2.89131 10.7313 3.21345 11.5356C3.34931 11.8748 3.47398 12.2326 3.56122 12.5871C3.62039 12.8276 3.1687 12.1662 3.13826 12.1153C2.76698 11.494 2.41718 10.7651 2.36988 10.0415C2.35524 9.81744 2.11446 9.25681 1.88348 9.1765C1.77853 9.14001 1.56937 10.1667 1.54982 10.2752C1.47029 10.7162 1.43898 11.2098 1.48872 11.6569C1.51853 11.9249 1.60621 12.1664 1.60621 12.4388C1.60621 12.5265 1.60216 12.7507 1.55922 12.5197C1.41119 11.7236 1.35684 10.9463 1.31014 10.1426C1.30884 10.1203 1.25365 9.9879 1.23495 10.0483C1.20824 10.1344 1.22649 10.2434 1.22555 10.3313C1.22271 10.5969 1.19199 10.8611 1.1856 11.1267C1.15695 12.3185 1.23152 13.5136 1.15036 14.7036C1.10171 15.4168 1.01373 16.1141 0.863685 16.8155C0.812895 17.0529 0.7999 17.3089 0.739147 17.5412C0.697913 17.6989 0.644048 18.1705 0.727398 18.0288C0.797463 17.9097 0.957606 17.8016 1.07986 17.7502C1.36484 17.6303 1.76848 17.5103 2.01037 17.3211C2.20913 17.1656 2.52538 17.1501 2.7482 17.0267C3.20329 16.7748 3.74203 16.5931 4.2497 16.4313C4.47865 16.3584 4.66267 16.2172 4.87238 16.137C4.99028 16.0919 5.09173 15.9651 5.16141 15.8651C5.3731 15.5615 5.70466 15.2852 6.04727 15.117C6.30381 14.991 6.56111 14.8737 6.82974 14.7732C6.97937 14.7172 7.31064 14.6583 7.2104 14.4474C6.92853 13.8545 6.31551 13.3519 5.81699 12.9331C5.47433 12.6452 5.10499 12.4096 4.63741 12.3759C4.24302 12.3474 3.84148 12.3669 3.44608 12.3669C3.10704 12.3669 2.87183 12.3001 2.58136 12.122C2.35363 11.9824 2.11981 11.6996 1.86938 11.6075C1.64213 11.5239 1.65997 11.4187 1.69315 11.1649C1.80285 10.3258 1.7328 12.8597 1.64851 13.7015C1.60429 14.1431 1.56391 14.5806 1.56391 15.0226C1.56391 15.566 1.57392 16.0504 1.45583 16.5774C1.41376 16.7651 1.35718 16.9575 1.35244 17.1481C1.35126 17.1952 1.27687 17.4024 1.32894 17.3143C1.53478 16.9661 2.04038 16.704 2.37928 16.4808C2.71273 16.2611 3.06406 16.1325 3.41083 15.9483C3.96064 15.6562 4.51468 15.3402 5.09091 15.0967C5.29436 15.0108 5.42136 14.8662 5.56557 14.7103C5.79149 14.4661 6.05878 14.2647 6.33394 14.0745C6.35332 14.0611 6.61033 13.8939 6.58771 13.8723C6.5575 13.8434 6.4055 13.8546 6.36214 13.8408C6.02172 13.7323 5.68429 13.5956 5.34704 13.4768C4.98559 13.3495 4.55283 13.2462 4.27084 12.9915C4.15329 12.8854 3.75941 12.9062 3.62231 12.8927C3.22461 12.8535 2.7998 12.8163 2.40043 12.8163C2.34053 12.8163 2.36753 13.002 2.36753 13.0365C2.36753 13.1495 2.27883 13.2102 2.23595 13.3196C2.07497 13.73 1.94798 14.1902 1.90228 14.6272C1.87818 14.8576 1.82759 15.071 1.91168 15.2967C1.97895 15.4773 2.06187 15.7369 2.20775 15.8764C2.27899 15.9445 2.52636 15.7855 2.57901 15.7663C3.33372 15.4914 3.97408 14.9334 4.53872 14.3935C4.74176 14.1994 4.84391 13.8478 5.13556 13.7464C5.21484 13.7189 4.91424 13.7257 4.86534 13.7195C4.15815 13.6302 3.44985 13.5672 2.7435 13.4678C2.61398 13.4496 2.67978 13.5532 2.6965 13.6296C2.74046 13.8304 2.7482 14.0222 2.7482 14.2272C2.7482 14.3736 2.6683 14.5147 2.6683 14.6474C2.6683 14.7216 3.47768 14.4551 3.53302 14.4384C3.9694 14.3075 4.43686 14.1651 4.83479 13.9442C4.91216 13.9012 4.98372 13.921 4.88648 14.0161C4.64093 14.2562 4.19505 14.2188 3.94893 14.4542C3.7602 14.6346 3.50531 14.7486 3.25575 14.8316C3.09109 14.8864 2.86646 14.9133 2.78109 15.0765C2.72431 15.1851 2.57309 15.2742 2.43333 15.236C2.38964 15.2241 2.4759 15.1552 2.51322 15.1305C2.78344 14.951 3.12311 14.8567 3.42963 14.7552C3.99945 14.5666 4.57702 14.3721 5.15436 14.2048C5.61718 14.0707 6.09923 13.9501 6.54307 13.7644C6.5469 13.7628 6.50266 13.7825 6.66056 13.9015C6.87673 14.0643 7.10175 14.0843 7.36784 14.1149C7.80855 14.1657 8.08123 14.2839 8.36884 14.6047C8.36968 14.6056 8.55907 14.7882 8.45813 14.744C8.26 14.6572 8.02433 14.5685 7.84484 14.4497C7.75231 14.3884 7.56929 14.3333 7.51117 14.2407C7.41809 14.0924 7.38586 13.8394 7.32319 13.6813C7.12103 13.1713 6.86308 12.6885 6.53602 12.2411C6.31637 11.9406 6.05611 11.6398 5.7606 11.4053C5.66158 11.3267 5.55072 11.2234 5.43163 11.1716C5.40237 11.1589 5.69869 11.5387 5.72535 11.5671C6.06984 11.9341 6.47425 12.2494 6.83914 12.5983C7.01645 12.7679 6.80608 12.7873 6.62061 12.8028C6.33508 12.8266 6.05975 12.865 5.94858 12.5646C5.91126 12.4638 5.97154 12.4388 6.06607 12.4748C6.38746 12.5969 6.70161 12.8338 6.97073 13.0365C7.32422 13.3026 7.67194 13.5968 7.99052 13.9015C8.05475 13.9629 8.11898 14.0243 8.1832 14.0857C8.23334 14.1336 8.32341 14.2991 8.33124 14.2317C8.42635 13.4133 8.53994 12.5972 8.67901 11.7828C8.7833 11.1719 8.88272 10.5606 8.98447 9.94939C9.07794 9.38802 9.13626 8.79025 9.43328 8.28678C9.53579 8.11303 9.67093 7.94854 9.7223 7.75205C9.76745 7.57937 9.8013 7.4133 9.87034 7.24653C9.89472 7.18763 10.0188 7.07353 9.95258 7.07353C9.76507 7.07353 9.3189 7.84012 9.24765 7.94078C8.49254 9.00759 7.72313 10.1051 7.15166 11.275C7.11255 11.355 6.85409 11.8229 6.98247 11.9018C7.18657 12.0273 7.45997 12.0899 7.6827 12.1804C7.76526 12.214 7.83701 12.247 7.88243 12.3242C7.90372 12.3604 7.92494 12.481 7.89888 12.4478C7.7586 12.269 7.84529 11.6422 7.85189 11.4502C7.86878 10.959 7.96101 10.4756 8.10096 10.0033C8.12421 9.92487 8.19344 9.6098 8.31244 9.56295C8.33417 9.55439 8.3185 9.60864 8.31244 9.63035C8.2625 9.80942 8.18053 9.98263 8.10331 10.1516C7.8206 10.7702 7.45539 11.4014 7.34434 12.0771C7.30271 12.3304 7.31967 12.4827 7.45243 12.6905C7.51982 12.7959 7.66632 12.9217 7.7579 13.014C7.94916 13.2068 8.0869 13.1758 8.36414 13.1758C8.62897 13.1758 9.12867 13.0814 9.36279 13.2364C9.57617 13.3777 9.52663 13.9103 9.50612 14.1194C9.46037 14.586 9.22906 14.2514 8.94218 14.2295C8.88989 14.2255 8.433 14.1518 8.50982 14.0857C8.67935 13.9398 8.86682 13.9238 9.03147 14.0835C9.0755 14.1262 9.72302 15.108 9.43563 15.1889C9.29882 15.2273 9.11674 15.1979 8.97508 15.1979C8.76113 15.1979 9.14924 15.2843 9.22415 15.3237C9.57175 15.5065 9.78277 15.868 10.1241 16.0359C10.3678 16.1557 10.6222 16.2512 10.8502 16.4021C11.3045 16.7029 11.8433 16.9202 12.3681 17.0492C12.6656 17.1223 13.0571 17.1779 13.301 17.3592C13.3561 17.4002 13.4147 17.3893 13.4702 17.4424C13.5287 17.4984 13.5423 17.5566 13.6182 17.5929C13.6664 17.6159 13.8616 17.7914 13.8931 17.7794C14.0652 17.7136 13.7451 16.7066 13.7451 16.5279C13.7451 16.1789 13.7451 15.8299 13.7451 15.4809C13.7451 15.3117 13.7426 15.1424 13.7451 14.9732C13.7483 14.7567 13.8297 14.573 13.8297 14.3531C13.8297 13.1884 13.7451 12.0424 13.7451 10.8751C13.7451 10.3861 13.8658 9.91863 13.872 9.43264C13.8837 8.51733 13.8858 7.59303 13.9166 6.67809C13.9229 6.49339 13.9971 6.27147 13.9542 6.08719C13.9391 6.0219 13.8731 6.1963 13.8367 6.25345C13.6701 6.51553 13.4237 6.70339 13.2235 6.93872C13.0539 7.13803 13.0104 7.3278 12.9932 7.5813C12.9544 8.15179 12.9107 8.70136 12.7699 9.25963C12.6515 9.72945 12.3851 10.7257 11.776 10.8526C11.2401 10.9643 10.7212 9.99734 10.5776 9.6663C9.96699 8.25869 10.7149 6.97545 11.7055 5.92767C11.7392 5.89203 12.1309 5.402 12.2013 5.65132C12.326 6.09306 12.3374 6.58456 12.3869 7.03758C12.4344 7.47108 12.6344 8.13675 12.307 8.51595C12.2098 8.62858 12.0765 8.71248 11.9781 8.81702C11.9585 8.83787 11.9687 8.89257 11.9687 8.91588C11.9687 9.10578 11.935 9.2763 11.877 9.4596C11.7909 9.73212 11.4919 10.5028 11.4682 10.219C11.453 10.0374 11.5246 9.83328 11.5739 9.66181C11.6965 9.23513 11.8304 8.81092 11.9734 8.39013C12.0472 8.17288 12.1597 7.66312 12.0439 7.45548C11.9918 7.36214 11.7799 7.34849 11.6914 7.3364C11.3532 7.29021 11.2365 7.50347 11.111 7.78126C10.9348 8.1715 10.8744 8.56731 10.8502 8.98778C10.8345 9.26003 10.7828 9.5822 10.8267 9.85503C10.8481 9.98781 10.9631 9.61963 11.0429 9.50903C11.2256 9.25566 11.438 9.0223 11.6538 8.79455C11.699 8.74687 11.9176 8.5794 11.9076 8.49349C11.8898 8.34039 11.39 8.04354 11.2849 7.94303C11.1636 7.82708 11.0108 7.56737 10.8502 7.49367C10.705 7.42703 10.4344 8.05056 10.399 8.11153C9.92291 8.93223 9.44966 9.79997 9.32754 10.7448C9.28009 11.1119 9.34271 11.5384 9.23825 11.8951C9.214 11.9779 9.18026 12.004 9.18655 12.0973C9.22191 12.6213 9.31134 13.1403 9.33694 13.6656C9.35173 13.969 9.29673 14.2432 9.48263 14.5014C9.60239 14.6677 9.69115 14.8313 9.83509 14.9799C10.0469 15.1987 10.2071 15.3159 10.5071 15.418C10.6864 15.4791 10.8891 15.5243 11.0617 15.6023C11.5178 15.8082 11.9893 16.0189 12.4762 16.1482C12.5922 16.179 13.2202 16.5311 13.3127 16.4426C13.3403 16.4162 13.3281 16.2922 13.3315 16.2628C13.3641 15.9823 13.4088 15.7033 13.4396 15.4225C13.5082 14.7986 13.4913 14.1707 13.4913 13.5442C13.4913 12.9882 13.5248 12.4331 13.5313 11.8771C13.5414 11.0022 13.4859 10.1176 13.543 9.24391C13.5609 8.96964 13.5843 8.83198 13.4749 8.58785C13.3851 8.3875 13.3656 8.59561 13.3362 8.72715C13.1895 9.38533 12.9921 10.0117 12.9838 10.6908C12.9766 11.2753 13.0261 11.857 13.0261 12.4411C13.0261 13.0769 13.0261 13.7127 13.0261 14.3486C13.0261 14.7413 13.0865 15.1452 13.1624 15.5304C13.1888 15.6644 13.3439 15.9258 13.1295 15.9258C12.9822 15.9258 12.7887 15.9595 12.6478 15.9191C12.5479 15.8904 12.5193 15.7675 12.495 15.6854C12.3724 15.271 12.3336 14.8403 12.3164 14.4115C12.2965 13.9133 12.2853 13.407 12.3399 12.9106C12.3974 12.3887 12.4717 11.8949 12.3846 11.3694C12.3378 11.0873 12.2673 10.8085 12.206 10.5291C12.1905 10.4586 12.1509 10.2511 12.1402 10.3224C12.0581 10.872 12.1379 11.4905 12.1379 12.0434C12.1379 12.6414 12.1351 13.2381 12.2225 13.8318C12.2743 14.1845 12.3534 14.5106 12.26 14.8676C12.2123 15.0502 12.1709 15.2125 11.9781 15.2698C11.745 15.3389 11.5969 15.3064 11.4846 15.0788C11.3378 14.7812 11.3466 14.4169 11.3389 14.0969C11.3272 13.6065 11.3264 13.1136 11.3366 12.6231C11.3462 12.1569 11.4775 11.7044 11.5128 11.239C11.525 11.0792 11.5968 10.6195 11.5128 10.7582C11.4355 10.8859 11.4219 11.0907 11.3765 11.2301C11.2408 11.647 11.0932 12.0546 11.0006 12.4838C10.8907 12.9929 10.871 13.4945 10.8243 14.0071C10.8073 14.1944 10.7102 14.3624 10.6998 14.5508C10.6944 14.6497 10.6794 14.8988 10.6152 14.9754C10.5858 15.0106 10.5456 14.9643 10.5283 14.9395C10.3216 14.6431 10.269 14.0998 10.1899 13.7756C9.91747 12.6599 9.6828 11.6155 10.0043 10.4931C10.0781 10.2355 10.2712 9.91954 10.2768 9.64833C10.28 9.49569 10.2768 9.34264 10.2768 9.18999C10.2768 9.15455 10.2395 8.71727 10.2933 8.94509C10.4769 9.72252 10.7071 10.4357 10.7609 11.2368C10.7911 11.6871 10.7424 12.1485 10.7938 12.5961C10.8221 12.8429 10.9779 13.0393 10.6904 12.7084C10.2442 12.195 9.88791 11.6377 9.60011 11.0323" stroke="black" stroke-linecap="round" stroke-linejoin="round"/>
</svg>
