<svg width="15" height="20" viewBox="0 0 15 20" fill="none" xmlns="http://www.w3.org/2000/svg">
<path d="M2.17742 0.100098C0.982154 0.100098 0 0.860449 0 1.82737V18.2365C5.58871e-05 18.4563 0.0538374 18.7036 0.264617 18.8842C0.475396 19.0648 0.741157 19.1 0.967742 19.1001C1.05554 19.1004 1.14178 19.0794 1.21724 19.0394L7.5 15.7198L13.7828 19.0394C13.8582 19.0794 13.9445 19.1004 14.0323 19.1001C14.2588 19.1 14.5246 19.0648 14.7354 18.8842C14.9462 18.7036 14.9999 18.4563 15 18.2365V1.82737C15 0.860447 14.0178 0.100098 12.8226 0.100098H2.17742ZM2.17742 0.963734H12.8226C13.5823 0.963734 14.0323 1.38117 14.0323 1.82737V18.1622L7.7495 14.8426C7.67417 14.8022 7.58791 14.7808 7.5 14.7808C7.41209 14.7808 7.32583 14.8022 7.2505 14.8426L0.967742 18.1622V1.82737C0.967742 1.38117 1.41768 0.963734 2.17742 0.963734Z" fill="black"/>
</svg>
