<svg width="213" height="139" viewBox="0 0 213 139" fill="none" xmlns="http://www.w3.org/2000/svg">
<path d="M51.5036 78.4646C52.3052 74.2563 52.4202 69.4391 55.4707 66.2091C57.0337 64.5542 58.0698 61.8128 58.6763 59.6563C59.4289 56.9804 61.1456 54.1766 62.4131 51.6867C63.9133 48.7399 65.599 45.6356 67.5668 42.9733C69.4913 40.3695 71.7939 37.9906 73.5706 35.287C77.5005 29.3068 81.5934 23.6989 86.0032 18.0727C89.8649 13.1457 96.531 11.68 101.411 8.0841C103.382 6.63176 105.778 5.69984 107.982 4.64831C111.28 3.07405 114.052 2.01897 117.74 1.70841C123.873 1.19197 129.996 1 136.159 1C143.503 1 150.472 3.87545 157.411 6.17139C161.578 7.55014 165.235 9.85159 168.356 12.9721C171.308 15.9246 175.005 18.4262 178.451 20.7646C186.386 26.1492 193.398 34.517 197.259 43.2921C199.634 48.6899 201.777 54.1716 204.201 59.5501C206.447 64.5328 208.841 69.8999 209.939 75.2768C211.201 81.4524 211.852 87.4875 211.852 93.7663C211.852 95.3992 210.635 97.407 209.16 98.2115C207.118 99.3256 205.608 99.0228 203.245 99.2564C199.578 99.6191 195.995 100.901 192.318 101.081C189.552 101.215 186.782 101.333 184.047 101.807C180.639 102.397 177.2 103.313 173.757 103.649C169.341 104.079 165.114 104.286 160.67 104.286C156.471 104.286 151.923 104.8 147.776 104.109C143.871 103.458 139.989 102.528 136.265 101.169C128.834 98.4579 120.986 97.1486 113.844 93.6954C109.668 91.6766 104.934 90.9547 100.526 89.5866C96.9821 88.4869 93.5753 87.0053 90.0765 85.7966C81.248 82.7468 70.8934 84.2939 61.7756 84.2027C58.8732 84.1737 54.9411 83.0355 52.8496 80.944C52.3778 80.4722 51.8224 79.9856 51.8224 79.2616C51.8224 77.9094 49.5824 80.2068 49.2721 80.4482C47.3003 81.9818 45.9658 82.4978 44.261 84.2027C42.8304 85.6333 39.8873 86.7919 38.261 88C32.971 91.9297 27.761 93 22.0515 96.5C18.8521 98.4613 12.6773 101.847 9.26096 103.5C6.91317 104.636 3.91041 106.162 1.76006 107.651C-0.00439912 108.873 1.64236 111.38 3.26179 111.618C11.7617 112.868 10.7617 110 15.2617 108.5C16.4538 108.103 19.5681 108.076 20.7617 108.5C22.937 109.272 24.2617 110.5 27.2617 112.5C30.7417 114.82 30.7402 114.5 34.7402 116.5C38.9829 118.621 41.2402 120.296 47.2402 123C51.1868 124.778 58.3863 129.871 62.4131 131.5C74.3044 136.31 86.1224 141.263 97.6211 135.421C104.311 132.022 110.339 129.84 116.74 126C121.449 123.175 126.115 119.473 130.74 116.5C134.515 114.073 137.74 111.618 142.74 108.5C144.717 107.267 146.093 105.606 148.095 104.605" stroke="black" stroke-linecap="round" stroke-linejoin="round"/>
<path d="M138.65 5.27835C136.706 3.80551 133.049 2.09048 130.444 3.53773C128.208 4.78027 128.467 6.0314 130.417 7.76496C133.02 10.0793 141.769 6.87142 137.656 3.78639" stroke="black" stroke-linecap="round" stroke-linejoin="round"/>
<path d="M3.26172 110C4.03516 109.315 4.76172 109 6.15458 108.571C6.49185 108.468 6.85491 108.397 7.19922 108.34C7.40335 108.306 7.76172 108.215 8.20815 108.188C9.01341 108.14 10.2617 108 12.2617 108.214" stroke="black" stroke-linecap="round" stroke-linejoin="round"/>
</svg>
