<svg width="94" height="77" viewBox="0 0 94 77" fill="none" xmlns="http://www.w3.org/2000/svg">
<path d="M57.5659 5.06085C52.4156 7.95088 49.4992 10.9003 44.8421 14.426C40.4013 17.7881 36.2304 21.3899 32.157 24.8712C27.0914 29.2006 22.003 32.9716 17.0905 36.7721C10.6179 41.7794 1.61796 49.1432 1.19007 57.9438C1.03108 61.2138 0.829969 63.1131 2.34629 66.4368C4.10632 70.2948 5.65276 71.9688 9.24667 74.1736C10.7998 75.1265 14.7711 75.8827 18.0683 75.2678C22.1499 74.5067 26.4834 72.0335 29.8658 69.6602C37.7834 64.1048 46.4081 58.5036 53.9813 52.3256C62.1382 45.6714 69.198 39.6995 76.9848 33.8043C82.1672 29.8809 88.0134 26.0727 91.5183 19.0385C92.9031 16.2596 93.9975 12.7667 91.8688 8.73411C89.7402 4.70149 87.043 2.35851 84.0402 1.67267C80.9437 0.965432 79.3197 0.868742 76.1386 1.20802C72.8219 1.56176 69.3742 3.45486 66.4185 4.93782C58.8204 8.74995 53.9174 14.1364 47.0742 19.0385C41.6555 22.9203 39.1696 24.851 33.9792 29.015C31.3042 31.1611 26.5742 34.7224 23.0742 37.7224C22.1311 38.5308 20.573 39.5851 18.2385 42.1862C14.492 46.3604 14.5152 53.2361 19.56 57.2793C24.5246 61.258 32.0389 59.6054 38.4267 54.7694C44.406 50.2426 51.8137 44.6459 57.7291 40.0319C62.8928 36.0043 64.0742 35.2224 69.5742 31.2224" stroke="black" stroke-linecap="round" stroke-linejoin="round"/>
</svg>
