<svg width="29" height="29" viewBox="0 0 29 29" fill="none" xmlns="http://www.w3.org/2000/svg">
<path fill-rule="evenodd" clip-rule="evenodd" d="M9.4291 9.42832C9.75454 9.10289 10.2822 9.10289 10.6076 9.42832L18.8572 17.6779C19.1826 18.0033 19.1826 18.531 18.8572 18.8564C18.5318 19.1818 18.0041 19.1818 17.6787 18.8564L9.4291 10.6068C9.10366 10.2814 9.10366 9.75376 9.4291 9.42832Z" fill="black"/>
<path fill-rule="evenodd" clip-rule="evenodd" d="M9.4291 18.8568C9.10366 18.5314 9.10366 18.0038 9.4291 17.6783L17.6787 9.42874C18.0041 9.10331 18.5318 9.10331 18.8572 9.42874C19.1826 9.75418 19.1826 10.2818 18.8572 10.6073L10.6076 18.8568C10.2822 19.1823 9.75454 19.1823 9.4291 18.8568Z" fill="black"/>
</svg>
