<svg width="152" height="88" viewBox="0 0 152 88" fill="none" xmlns="http://www.w3.org/2000/svg">
<path d="M105.926 26.6831C98.9258 10.1831 84.4258 3.68311 74.4258 1.68311C67.8832 0.374586 56.54 0.661747 51.1416 5.07865C45.5183 9.1833 42.4258 17.9761 42.4258 22.6833C42.4258 29.6345 43.3865 32.6221 47.3927 38.5259C48.6037 40.3105 54.9258 46.6833 57.7022 42.5091C59.9201 37.5189 48.2377 34.1748 45.5183 34.0741C36.9409 33.7564 29.2604 34.8873 21.0332 37.0029C11.9511 39.3383 1 47.7972 1 57.8562C1 72.8063 16.8856 76.4713 28.4725 78.8852C36.3752 80.5316 45.4258 80.1833 53.6604 79.4124C59.3687 78.8781 67.7077 77.5291 72.0535 73.1833C74.9518 70.2849 74.3582 66.4355 72.0535 65.6833C65.9258 63.6833 61.2795 72.6833 62.2712 77.8894C64.2319 88.1833 92.7228 87.2621 101.635 86.7931C113.885 86.1484 131.926 82.6833 138.889 68.8686C141.586 63.5183 139.769 54.2453 134.426 50.6833C131.926 49.0166 128.914 48.6833 127.526 51.4714C126.137 54.2594 129.709 56.6833 132.926 56.6833C137.282 56.6833 139.667 56.0341 143.341 53.873C146.958 51.7454 149.992 48.3837 150.926 44.1833C153.172 34.0741 147.964 25.3065 143.341 20.6833C135.98 13.3222 123.732 12.0293 114.873 12.9865C108.426 13.6831 98.9258 17.6831 93.7854 22.4759" stroke="black" stroke-linecap="round" stroke-linejoin="round"/>
</svg>
