<svg width="132" height="144" viewBox="0 0 132 144" fill="none" xmlns="http://www.w3.org/2000/svg">
<path d="M27.293 19.1544C36.4579 9.98822 46.3226 4.2179 56.293 2.15518C70.793 -0.844668 84.8876 3.37406 95.8334 9.45507C105.89 15.042 116.871 28.1553 119.619 40.5239C123.426 57.6553 120.056 74.1385 115.668 88.9478C109.904 108.399 97.8959 121.425 80.293 133.155C60.793 146.149 45.2404 145.123 29.293 137.655C18.5739 132.636 12.4371 123.729 7.27574 114.438C2.02123 104.98 1 97.8882 1 87.2433C1 79.5503 2.79293 73.1553 4.29297 66.1553C5.18828 61.9773 7.11623 56.9698 8.29297 52.6552C9.79297 47.1553 12.1973 42.7455 13.793 39.1552C17.0726 31.7761 21.293 25.1552 27.293 19.1544Z" stroke="black" stroke-linecap="round" stroke-linejoin="round"/>
<path d="M71.293 1.34758C82.8065 -0.355074 96.8995 4.49323 105.833 9.45649C115.89 15.0434 127.247 29.8519 129.619 40.5253C133.022 55.839 130.056 74.1399 125.668 88.9492C119.904 108.401 107.081 121.527 91.19 133.887C82.1631 140.908 69.5782 143.958 57.793 142.753" stroke="black" stroke-linecap="round" stroke-linejoin="round"/>
<path d="M47.2405 30.8618C45.3771 33.1478 43.1777 34.6228 41.7309 37.2538C40.496 39.4996 38.9139 41.5081 37.5498 43.6613C36.0112 46.0897 35.1772 48.5945 33.9599 51.1516C33.0106 53.1459 31.711 55.2755 30.9292 57.3035C29.6354 60.6596 27.9428 63.7873 26.4384 66.9653C24.492 71.077 23.9027 75.706 22.7533 80.0439C21.8886 83.3069 21.5916 86.459 21.5519 89.8635C21.5022 94.1371 22.7274 96.8196 23.7191 100.828C24.4689 103.859 27.9346 105.914 29.365 108.665C30.2119 110.294 33.3139 115.2 34.8388 115.723" stroke="black" stroke-linecap="round" stroke-linejoin="round"/>
<path d="M35.2754 46.6553C36.9605 43.1578 40.3186 36.6841 38.7477 32.6485C37.9824 30.6825 37.4892 30.2935 35.8372 29.0652C33.827 27.5707 33.2349 31.3358 33.2241 32.2679C33.2012 34.2328 33.3064 35.8973 33.8929 37.793C34.2161 38.8377 34.9157 40.138 34.9022 41.3014C34.8784 43.3392 35.3185 45.4629 35.293 47.6553" stroke="black" stroke-linecap="round" stroke-linejoin="round"/>
<path d="M29.793 59.6553C29.8721 57.2387 30.0355 54.3703 29.9823 51.9436C29.9522 50.5699 29.0312 49.1028 28.6193 47.8756C28.1337 46.429 27.8563 44.8787 26.4637 44.2687C25.6281 43.9026 23.9843 42.9419 23.3473 44.3047C22.7069 45.6748 23.3068 48.5645 23.5763 49.9876C23.9206 51.8054 24.6089 54.1956 25.7428 55.476C27.1028 57.0117 27.6266 59.4688 28.6193 61.1553" stroke="black" stroke-linecap="round" stroke-linejoin="round"/>
<path d="M24.7755 70.7659C24.8146 67.4031 23.1384 64.5976 20.5962 62.2797C19.1323 60.9449 13.9113 59.0376 13.8733 62.3035C13.8377 65.3578 17.8118 66.3187 19.6463 68.4096C20.9454 69.8904 24.4386 70.1714 24.4104 72.5988" stroke="black" stroke-linecap="round" stroke-linejoin="round"/>
<path d="M21.6023 85.4928C21.6463 81.7149 19.3586 78.05 15.8857 75.4387C13.8858 73.935 6.76099 71.7775 6.71828 75.4466C6.67834 78.878 12.1001 79.9687 14.6075 82.323C16.3831 83.9902 21.6023 85.4928 21.5782 87.5667" stroke="black" stroke-linecap="round" stroke-linejoin="round"/>
<path d="M46.2273 31.85C47.2092 30.6529 50.6922 29.664 51.2474 28.2685C52.2813 27.24 52.3004 25.5996 52.3111 24.6867C52.3268 23.3325 52.1843 23.5401 51.308 23.0665C48.6315 21.6201 47.4521 30.145 46.7864 31.0664" stroke="black" stroke-linecap="round" stroke-linejoin="round"/>
<path d="M21.9478 96.2969C19.4605 95.0042 15.1306 93.0329 12.4996 92.5473C10.921 92.256 9.31194 92.6512 8.48663 93.2068C7.86099 93.6279 5.4036 94.957 7.04142 95.7882C9.58627 97.0799 12.9135 97.5471 15.8743 97.5815C16.5599 97.5895 18.7737 97.1698 19.9394 97.488C20.4786 97.6351 21.7499 98.1647 22.4486 98.5774" stroke="black" stroke-linecap="round" stroke-linejoin="round"/>
<path d="M33.293 52.6553C35.3531 49.4085 38.7373 44.1044 42.94 42.9289C44.9873 42.3563 45.5699 42.4929 47.4586 42.9936C49.7568 43.6029 46.9043 46.2044 46.1277 46.7492C44.4905 47.8976 43.0391 48.7793 41.1435 49.4423C40.0989 49.8076 38.6443 50.0449 37.675 50.7249C35.9771 51.9159 34.1196 53.3739 32.293 54.6553" stroke="black" stroke-linecap="round" stroke-linejoin="round"/>
<path d="M26.6431 66.8321C27.5769 64.4851 30.1878 62.1098 31.4943 60.3819C32.2338 59.4038 33.4367 58.3024 34.4447 57.6649C35.6329 56.9136 37.3807 55.5797 38.9533 55.992C39.8968 56.2394 41.1393 57.0955 41.0072 58.4752C40.8743 59.8623 38.8347 61.5904 37.8536 62.4575C36.6005 63.5649 34.74 64.8764 33.0533 65.1092C31.0302 65.3885 27.9379 67.151 26.168 67.7652" stroke="black" stroke-linecap="round" stroke-linejoin="round"/>
<path d="M23.4667 77.5492C25.4675 74.6642 28.4573 73.1625 31.8216 72.535C33.759 72.1736 38.9454 73.3151 37.0023 76.1171C35.185 78.7375 31.5338 77.4505 28.8533 78.2597C26.9551 78.8327 23.7525 77.1553 22.793 79.6553" stroke="black" stroke-linecap="round" stroke-linejoin="round"/>
<path d="M30.2403 83.7365C26.7883 84.9435 23.4696 88.2655 21.793 91.6553C23.6185 91.6553 26.0543 91.216 27.9692 90.3021C30.6731 89.0115 34.7142 89.795 36.2371 86.7162C37.8654 83.4239 32.2281 83.0414 30.2403 83.7365Z" stroke="black" stroke-linecap="round" stroke-linejoin="round"/>
<path d="M92.2393 31.5861C92.8816 34.46 94.2041 36.7627 94.3079 39.7566C94.3966 42.3122 94.9108 44.8125 95.1598 47.3437C95.4407 50.1984 95.0448 52.8045 94.9738 55.6294C94.9184 57.8324 95.1196 60.3137 94.896 62.4715C94.5262 66.0425 94.6248 69.5893 94.5288 73.0964C94.4046 77.6339 92.8062 82.0218 91.852 86.4023C91.1343 89.6975 89.9509 92.6386 88.4166 95.6888C86.4908 99.5175 84.1378 101.356 81.3857 104.481C79.305 106.843 76.3644 109.848 73.793 111.655C72.2705 112.725 65.4227 115.875 63.793 115.655" stroke="black" stroke-linecap="round" stroke-linejoin="round"/>
<path d="M95.8024 49.495C96.039 45.6798 95.9032 39.9988 99.0553 37.0229C100.591 35.5732 101.175 35.425 103.096 34.9956C105.433 34.4732 104.177 38.0845 103.755 38.9235C102.866 40.6921 102.01 42.1397 100.653 43.599C99.9057 44.4032 98.7316 45.2836 98.2049 46.3307C97.2823 48.1649 96.2923 50.1331 95.2998 52.1064" stroke="black" stroke-linecap="round" stroke-linejoin="round"/>
<path d="M94.7118 64.373C95.724 62.2354 96.4919 59.7004 97.6398 57.6185C98.2896 56.44 99.8641 55.615 100.826 54.7499C101.96 53.7303 102.934 52.5191 104.589 52.6685C105.582 52.7581 107.645 52.7254 107.661 54.2199C107.677 55.7223 105.779 57.9395 104.869 59.0442C103.708 60.4552 101.947 62.1956 100.246 62.7546C98.2055 63.4251 97.0204 64.9647 95.2759 65.9454" stroke="black" stroke-linecap="round" stroke-linejoin="round"/>
<path d="M94.0943 77.5175C95.6669 74.3911 98.4309 72.5022 101.698 71.4286C103.579 70.8104 108.926 71.2441 107.399 74.2805C105.971 77.12 102.135 76.3359 99.5778 77.4974C97.7668 78.32 94.6644 77.1095 93.5293 79.3663" stroke="black" stroke-linecap="round" stroke-linejoin="round"/>
<path d="M90.2819 91.9152C91.9664 88.5663 95.6532 86.3317 99.9035 85.5417C102.351 85.0868 109.611 86.2861 107.975 89.5386C106.445 92.5804 101.172 91.182 97.8892 92.1657C95.5646 92.8624 90.2819 91.9152 89.3572 93.7536" stroke="black" stroke-linecap="round" stroke-linejoin="round"/>
<path d="M92.4732 32.4947C92.1749 31.0265 89.6364 28.6803 89.7942 27.2187C89.3746 25.8766 90.1036 24.4272 90.5093 23.6206C91.1111 22.4242 91.1391 22.667 92.106 22.6226C95.0592 22.487 92.1973 30.4772 92.3496 31.5691" stroke="black" stroke-linecap="round" stroke-linejoin="round"/>
<path d="M84.4781 101.111C87.3729 100.915 92.2675 100.853 94.8722 101.532C96.4349 101.939 97.6689 103.05 98.1189 103.974C98.4599 104.675 99.9682 107.101 98.0724 107.21C95.1267 107.38 91.9089 106.374 89.2433 105.096C88.626 104.8 86.8639 103.396 85.6565 103.199C85.098 103.108 83.6864 103.077 82.8475 103.182" stroke="black" stroke-linecap="round" stroke-linejoin="round"/>
<path d="M94.8642 57.0319C94.5037 53.2219 93.6788 47.1039 90.4308 44.1846C88.8486 42.7625 88.2601 42.6248 86.3259 42.2295C83.9723 41.7485 85.345 45.3366 85.7941 46.1679C86.7409 47.9202 87.6433 49.3522 89.0471 50.7872C89.8206 51.5779 91.023 52.4372 91.5836 53.4747C92.5656 55.2921 93.9404 57.1549 94.9968 59.11" stroke="black" stroke-linecap="round" stroke-linejoin="round"/>
<path d="M94.1029 72.7369C94.3431 70.2302 93.084 66.9511 92.7027 64.8299C92.4868 63.6292 91.9099 62.1123 91.2948 61.0954C90.5698 59.8968 89.6087 57.93 88.0004 57.5968C87.0353 57.3969 85.5199 57.6061 85.0028 58.894C84.4829 60.1889 85.5253 62.6368 86.0103 63.8463C86.6297 65.391 87.7026 67.388 89.1165 68.3468C90.8122 69.4967 92.7881 72.4443 94.1011 73.7798" stroke="black" stroke-linecap="round" stroke-linejoin="round"/>
<path d="M92.0267 83.6993C91.5529 80.238 89.5491 77.5685 86.8044 75.5108C85.2239 74.3259 80.02 73.0325 80.4802 76.3942C80.9106 79.538 84.797 80.0179 86.8412 81.9327C88.2888 83.2887 91.6194 83.1313 91.9614 85.6299" stroke="black" stroke-linecap="round" stroke-linejoin="round"/>
<path d="M86.8876 97.9961C86.9389 94.2296 85.1586 89.6967 82.6022 87.0838C81.1301 85.5791 75.8696 83.4088 75.8198 87.0669C75.7732 90.488 79.779 91.5901 81.6224 93.9442C82.9278 95.6113 86.4508 95.9487 86.4138 98.6677" stroke="black" stroke-linecap="round" stroke-linejoin="round"/>
<path d="M45.793 84.767C46.7533 79.4843 48.3328 74.4465 49.4209 69.1904C50.5067 63.9461 53.1629 59.0664 54.2246 53.9383C54.4658 52.7735 55.2037 50.5426 55.9378 52.3157C57.0542 55.0119 57.3523 58.2468 58.1549 61.0776C58.9144 63.7562 59.293 66.6553 59.5658 69.3346C59.793 71.1553 60.293 72.8335 60.293 74.6553C60.293 76.4771 58.9569 78.7431 58.5244 76.6542C57.9934 74.0891 59.4744 70.8603 61.0439 69.0462C64.0663 65.5524 65.2679 61.0409 67.8295 57.2916C68.3274 56.5628 70.7964 51.9551 71.659 51.9551C72.2717 51.9551 70.5841 70.0486 70.5841 71.6423C70.5841 76.0386 69.3748 89.1633 69.3748 84.767" stroke="black" stroke-linecap="round" stroke-linejoin="round"/>
<path d="M120.793 44.6553L129.793 42.6553" stroke="black"/>
<path d="M116.793 84.6553L126.293 86.6553" stroke="black"/>
<path d="M86.793 129.655L91.293 133.655" stroke="black"/>
<path d="M96.793 120.155L102.793 124.155" stroke="black"/>
<path d="M98.793 11.6553L102.793 7.65527" stroke="black"/>
<path d="M106.793 18.6553L112.793 14.6553" stroke="black"/>
</svg>
