<svg width="20" height="16" viewBox="0 0 20 16" fill="none" xmlns="http://www.w3.org/2000/svg">
<path d="M15.745 9.13159L15.7424 8.49519C16.6422 8.61278 18.4765 7.95754 18.4765 7.95754C17.8548 7.32174 17.7141 6.57957 17.3059 3.66738C16.8978 0.754993 14.3669 0.782236 14.1764 0.782236C13.9859 0.782236 11.4547 0.754993 11.0464 3.66718C10.6382 6.57937 10.4976 7.32154 9.87598 7.95734C9.87598 7.95734 11.7103 8.61258 12.6101 8.49499L12.6075 9.13139C12.1458 9.63759 11.5965 10.0242 11.0484 10.3537C11.2279 10.4555 11.406 10.5538 11.5791 10.6488C12.8022 11.3198 13.9576 11.9534 13.9576 13.2228V14.6102H19.6466C19.8419 14.6102 20.0001 14.4518 20.0001 14.2565V12.666C20.0003 11.2073 17.346 10.8872 15.745 9.13159Z" fill="black"/>
<path d="M8.63401 9.29219V8.78119C9.09814 8.24014 9.44809 7.61575 9.68627 6.88821C9.72012 6.78424 9.75197 6.67828 9.78122 6.57031C10.0244 6.44551 10.2223 6.11318 10.2668 5.70554C10.2818 5.56993 10.2786 5.43892 10.2598 5.31773C10.2281 5.11601 10.1534 4.94234 10.0488 4.82255C10.0697 4.43654 10.0705 4.0287 10.0524 3.59882C10.0384 3.26449 10.013 2.91695 9.97472 2.55398C9.96531 2.46423 9.95329 2.3781 9.93887 2.29457C9.5769 0.208078 7.6783 0.00195308 6.95697 0.000150237C6.92812 -5.00789e-05 6.42893 -5.00789e-05 6.40009 0.000150237C5.67875 0.00175276 3.78016 0.208078 3.41819 2.29457C3.40377 2.3781 3.39175 2.46443 3.38233 2.55398C3.34427 2.91695 3.31903 3.26429 3.30461 3.59882C3.28638 4.0287 3.28718 4.43674 3.30821 4.82255C3.20345 4.94234 3.12873 5.11601 3.09748 5.31773C3.07845 5.43892 3.07525 5.56993 3.09007 5.70554C3.13494 6.11318 3.33245 6.44571 3.57584 6.57031C3.63473 6.78665 3.70264 6.99417 3.77996 7.19369C4.01132 7.79243 4.32542 8.31726 4.72325 8.78119V9.29199V9.29219C2.94284 11.2447 0 11.6004 0 13.2226V14.991C0 15.2081 0.175877 15.3844 0.39322 15.3844H12.9636C13.1808 15.3844 13.3567 15.2081 13.3567 14.991V13.2226C13.3569 11.6004 10.414 11.2447 8.63401 9.29219Z" fill="black"/>
</svg>
