<svg width="84" height="144" viewBox="0 0 84 144" fill="none" xmlns="http://www.w3.org/2000/svg">
<path d="M82.7494 15.8059C71.9781 7.64586 61.8709 3.49523 49.0833 1.5279C41.56 0.370477 25.3454 0.938166 17.993 5.02779C10.6407 9.11735 5.99139 14.5148 7.03635 22.7713C8.08132 31.0278 20.5447 41.4802 27.493 44.2479C39.493 49.0279 52.0698 50.0279 66.493 44.2479C70.0698 43.0279 76.993 38.5278 73.2042 29.9947C68.493 22.7713 57.2813 21.5278 48.493 21.5278C32.9026 21.5278 20 27.0278 10 37.0278C7.96931 39.0585 5.09335 42.3411 3.5 45.5278C2.04924 48.4294 1 52.311 1 57.0278C0.999331 64.811 4.64135 71.8461 8.70986 75.9146C18.8759 86.0807 35.5204 87.0279 49.0833 87.0279C56.4942 87.0279 65.9163 86.0121 71.4942 82.0279C78.0077 77.3754 79.4942 70.0279 72.3013 64.5636C67.227 60.7089 61.241 60.0279 54.4942 60.0279C46.2972 60.0279 41.0168 60.5692 32.9942 62.0279C25.4955 64.4141 19.9942 66.5279 13.4942 71.5279C8.1623 75.6294 4.96919 79.9494 4.96919 87.7816C4.96919 98.2777 15.6391 105.456 24.4942 109.028C29.6391 111.103 35.9942 112.282 41.4942 113.321C46.9942 114.361 55.785 114.551 61.8532 113.321C71.4942 111.368 73.6031 105.273 68.2381 102.293C62.8731 99.3123 55.1085 98.0279 49.0833 98.0279C34.1025 98.0279 18.9942 100.051 9.49424 112.028C5.21641 117.421 4.83683 123.056 6.99423 129.528C9.99423 138.528 21.7462 141.585 28.1872 142.344C33.9942 143.028 37.7536 143.873 49.0833 141.441C57.9942 139.528 67.5182 133.792 73.2042 129.528" stroke="black" stroke-linecap="round" stroke-linejoin="round"/>
</svg>
