<svg width="15" height="15" viewBox="0 0 15 15" fill="none" xmlns="http://www.w3.org/2000/svg">
<path fill-rule="evenodd" clip-rule="evenodd" d="M8.30806 0.808058C8.55214 0.563981 8.94786 0.563981 9.19194 0.808058L11.6919 3.30806C11.936 3.55214 11.936 3.94786 11.6919 4.19194L4.81694 11.0669C4.69973 11.1842 4.54076 11.25 4.375 11.25H1.875C1.52982 11.25 1.25 10.9702 1.25 10.625V8.125C1.25 7.95924 1.31585 7.80027 1.43306 7.68306L8.30806 0.808058ZM2.5 8.38388V10H4.11612L10.3661 3.75L8.75 2.13388L2.5 8.38388Z" fill="black"/>
<path fill-rule="evenodd" clip-rule="evenodd" d="M1.25 13.75C1.25 13.4048 1.52982 13.125 1.875 13.125H13.125C13.4702 13.125 13.75 13.4048 13.75 13.75C13.75 14.0952 13.4702 14.375 13.125 14.375H1.875C1.52982 14.375 1.25 14.0952 1.25 13.75Z" fill="black"/>
</svg>
