<svg width="15" height="15" viewBox="0 0 15 15" fill="none" xmlns="http://www.w3.org/2000/svg">
<path fill-rule="evenodd" clip-rule="evenodd" d="M7.5 8.75C6.80964 8.75 6.25 8.19036 6.25 7.5C6.25 6.80964 6.80964 6.25 7.5 6.25C8.19036 6.25 8.75 6.80964 8.75 7.5C8.75 8.19036 8.19036 8.75 7.5 8.75Z" fill="black"/>
<path fill-rule="evenodd" clip-rule="evenodd" d="M3.125 8.75C2.43464 8.75 1.875 8.19036 1.875 7.5C1.875 6.80964 2.43464 6.25 3.125 6.25C3.81536 6.25 4.375 6.80964 4.375 7.5C4.375 8.19036 3.81536 8.75 3.125 8.75Z" fill="black"/>
<path fill-rule="evenodd" clip-rule="evenodd" d="M11.875 8.75C11.1846 8.75 10.625 8.19036 10.625 7.5C10.625 6.80964 11.1846 6.25 11.875 6.25C12.5654 6.25 13.125 6.80964 13.125 7.5C13.125 8.19036 12.5654 8.75 11.875 8.75Z" fill="black"/>
</svg>
