<svg width="569" height="74" viewBox="0 0 569 74" fill="none" xmlns="http://www.w3.org/2000/svg">
<path d="M8.00076 43.5435C12.1435 50.9084 15.9437 58.7853 21.9023 64.9192C23.4023 66.4633 23.9023 67.4192 25.4023 68.4192C28.4023 66.9192 31.292 65.2013 33.751 63.0155C35.5846 61.3857 37.8956 60.1949 39.9349 58.8615C42.715 57.0437 45.1122 54.6933 47.1572 52.064C51.5305 46.4412 56.0237 40.9967 60.8466 35.9199C63.3172 33.3193 65.156 28.7334 66.0392 25.2988C67.2357 20.6458 65.5627 17.428 63.915 13.3088C63.099 11.2688 60.1905 10.3528 59.0529 8.30505C58.368 7.07237 55.8552 5.75599 54.474 5.75599C52.0958 5.75599 49.3037 4.68962 46.9684 5.51996C43.2813 6.83093 40.4281 7.5085 38.1411 11.0429C36.1544 14.1133 34.5063 18.8146 34.5063 22.4901C34.5063 25.9326 34.2663 15.3504 32.5945 12.3411C31.4626 10.3036 29.995 8.46704 28.3461 6.8181C26.7933 5.26532 25.1199 4.88416 23.2479 3.84419C20.1711 2.13484 15.8265 3.45553 12.6504 4.03301C7.43342 4.98156 5.6723 8.08742 3.72872 12.5299C2.73914 14.7918 2.27411 17.3955 1.79332 19.7994C1.35087 22.0117 0.374973 27.1642 1.5809 29.3348C2.02805 30.1397 1.8242 31.2921 2.12375 32.1907C2.56313 33.5089 3.49672 34.6534 4.12996 35.9199C4.7808 37.2216 5.67405 38.0781 6.13617 39.4131C6.55962 40.6364 7.37502 42.4311 8.00076 43.5435Z" stroke="black" stroke-linecap="round" stroke-linejoin="round"/>
<path d="M78.0008 43.5435C82.1435 50.9084 85.9437 59.7853 91.9023 65.9192C93.4023 67.4633 93.9023 68.4192 95.4023 69.4192C98.4023 67.9192 101.292 66.2013 103.751 64.0155C105.585 62.3857 107.896 60.1949 109.935 58.8615C112.715 57.0437 116.455 53.6293 118.5 51C122.873 45.3772 128 42 130.847 35.9199C133.317 33.3193 135.156 28.7334 136.039 25.2988C137.236 20.6458 135.563 17.428 133.915 13.3088C133.099 11.2688 130.19 10.3528 129.053 8.30505C128.368 7.07237 125.855 5.75599 124.474 5.75599C122.096 5.75599 119.304 4.68962 116.968 5.51996C113.281 6.83093 110.428 7.5085 108.141 11.0429C106.154 14.1133 104.506 18.8146 104.506 22.4901C104.506 25.9326 104.266 15.3504 102.595 12.3411C101.463 10.3036 99.995 8.46704 98.3461 6.8181C96.7933 5.26532 95.1199 4.88416 93.2479 3.84419C90.1711 2.13484 85.8265 3.45553 82.6504 4.03301C77.4334 4.98156 75.6723 8.08742 73.7287 12.5299C72.7391 14.7918 72.2741 17.3955 71.7933 19.7994C71.3509 22.0117 70.375 27.1642 71.5809 29.3348C72.028 30.1397 71.8242 31.2921 72.1238 32.1907C72.5631 33.5089 73.4967 34.6534 74.13 35.9199C74.7808 37.2216 75.6741 38.0781 76.1362 39.4131C76.5596 40.6364 77.375 42.4311 78.0008 43.5435Z" stroke="black" stroke-linecap="round" stroke-linejoin="round"/>
<path d="M157.001 44.3168C161.143 51.6816 164.944 60.5586 170.902 66.6925C172.402 68.2366 172.902 69.1925 174.402 70.1925C177.402 68.6925 180.292 66.9746 182.751 64.7888C184.585 63.159 186.896 60.9681 188.935 59.6348C191.715 57.817 195.455 54.4026 197.5 51.7733C201.873 46.1505 208 41.7733 210.847 35.6932C213.317 33.0926 215.156 27.5067 216.039 24.0721C217.236 19.4191 215.563 16.2013 213.915 12.0821C213.099 10.0421 210.19 9.12605 209.053 7.07834C208.368 5.84566 205.855 4.52927 204.474 4.52927C202.096 4.52927 198.304 4.46291 195.968 5.29325C192.281 6.60422 189.428 7.28179 187.141 10.8162C185.154 13.8866 183.506 18.5879 183.506 22.2634C183.506 25.7059 183.266 15.1237 181.595 12.1144C180.463 10.0769 178.995 8.24032 177.346 6.59138C175.793 5.03861 174.12 4.65745 172.248 3.61748C169.171 1.90813 164.827 4.22882 161.65 4.80629C156.433 5.75485 154.672 8.86071 152.729 13.3032C151.739 15.5651 151.274 18.1688 150.793 20.5727C150.351 22.785 149.375 27.9375 150.581 30.1081C151.028 30.913 150.824 32.0654 151.124 32.964C151.563 34.2822 152.497 35.4267 153.13 36.6932C153.781 37.9949 154.674 38.8514 155.136 40.1864C155.56 41.4097 156.375 43.2044 157.001 44.3168Z" stroke="black" stroke-linecap="round" stroke-linejoin="round"/>
<path d="M232.001 45.3168C236.143 52.6816 239.944 61.5586 245.902 67.6925C247.402 69.2366 247.902 70.1925 249.402 71.1925C252.402 69.6925 258.292 66.9746 260.751 64.7888C262.585 63.159 264.896 60.9681 266.935 59.6348C269.715 57.817 273.455 54.4026 275.5 51.7733C279.873 46.1505 286 41.7733 288.847 35.6932C291.317 33.0926 293.156 27.5067 294.039 24.0721C295.236 19.4191 293.563 16.2013 291.915 12.0821C291.099 10.0421 288.19 9.12605 287.053 7.07834C286.368 5.84566 283.855 4.52927 282.474 4.52927C280.096 4.52927 276.304 4.46291 273.968 5.29325C270.281 6.60422 267.428 7.28179 265.141 10.8162C263.154 13.8866 261.506 18.5879 261.506 22.2634C261.506 25.7059 261.266 15.1237 259.595 12.1144C258.463 10.0769 256.995 8.24032 255.346 6.59138C253.793 5.03861 249.12 5.65745 247.248 4.61748C244.171 2.90813 239.827 5.22882 236.65 5.8063C231.433 6.75485 229.672 9.86071 227.729 14.3032C226.739 16.5651 226.274 19.1688 225.793 21.5727C225.351 23.785 224.375 28.9375 225.581 31.1081C226.028 31.913 225.824 33.0654 226.124 33.964C226.563 35.2822 227.497 36.4267 228.13 37.6932C228.781 38.9949 229.674 39.8514 230.136 41.1864C230.56 42.4097 231.375 44.2044 232.001 45.3168Z" stroke="black" stroke-linecap="round" stroke-linejoin="round"/>
<path d="M320.001 45.3168C324.143 52.6816 327.944 61.5586 333.902 67.6925C335.402 69.2366 335.902 70.1925 337.402 71.1925C340.402 69.6925 346.292 66.9746 348.751 64.7888C350.585 63.159 352.896 60.9681 354.935 59.6348C357.715 57.817 361.455 54.4026 363.5 51.7733C367.873 46.1505 374 39.7733 376.847 33.6932C379.317 31.0926 381.156 25.5067 382.039 22.0721C383.236 17.4191 381.563 14.2013 379.915 10.0821C379.099 8.04209 376.19 7.12605 375.053 5.07834C374.368 3.84566 371.855 2.52927 370.474 2.52927C368.096 2.52927 364.304 2.46291 361.968 3.29325C358.281 4.60422 355.428 5.28179 353.141 8.81622C351.154 11.8866 349.506 16.5879 349.506 20.2634C349.506 23.7059 349.266 13.1237 347.595 10.1144C346.463 8.0769 344.995 6.24032 343.346 4.59138C341.793 3.03861 337.12 3.65745 335.248 2.61748C332.171 0.908125 327.827 3.22882 324.65 3.8063C319.433 4.75485 317.672 7.86071 315.729 12.3032C314.739 14.5651 314.274 17.1688 313.793 19.5727C313.351 21.785 312.375 26.9375 313.581 29.1081C314.028 29.913 313.824 31.0654 314.124 31.964C314.563 33.2822 315.497 34.4267 316.13 35.6932C316.781 36.9949 317.674 37.8514 318.136 39.1864C318.56 40.4097 319.375 44.2044 320.001 45.3168Z" stroke="black" stroke-linecap="round" stroke-linejoin="round"/>
<path d="M418.001 47.3168C422.143 54.6816 425.944 63.5586 431.902 69.6925C433.402 71.2366 433.902 72.1925 435.402 73.1925C438.402 71.6925 444.292 68.9746 446.751 66.7888C448.585 65.159 450.896 62.9681 452.935 61.6348C455.715 59.817 459.455 56.4026 461.5 53.7733C465.873 48.1505 472 41.7733 474.847 35.6932C477.317 33.0926 479.156 25.5067 480.039 22.0721C481.236 17.4191 479.563 14.2013 477.915 10.0821C477.099 8.04209 474.19 7.12605 473.053 5.07834C472.368 3.84566 469.855 2.52927 468.474 2.52927C466.096 2.52927 462.304 2.46291 459.968 3.29325C456.281 4.60422 453.428 5.28179 451.141 8.81622C449.154 11.8866 447.506 16.5879 447.506 20.2634C447.506 23.7059 447.266 13.1237 445.595 10.1144C444.463 8.0769 442.995 6.24032 441.346 4.59138C439.793 3.03861 435.12 3.65745 433.248 2.61748C430.171 0.908125 425.827 3.22882 422.65 3.8063C417.433 4.75485 415.672 7.86071 413.729 12.3032C412.739 14.5651 412.274 17.1688 411.793 19.5727C411.351 21.785 410.375 26.9375 411.581 29.1081C412.028 29.913 411.824 31.0654 412.124 31.964C412.563 33.2822 413.497 36.4267 414.13 37.6932C414.781 38.9949 415.674 39.8514 416.136 41.1864C416.56 42.4097 417.375 46.2044 418.001 47.3168Z" stroke="black" stroke-linecap="round" stroke-linejoin="round"/>
<path d="M505.001 47.3168C509.143 54.6816 512.944 63.5586 518.902 69.6925C520.402 71.2366 520.902 72.1925 522.402 73.1925C525.402 71.6925 531.292 68.9746 533.751 66.7888C535.585 65.159 537.896 62.9681 539.935 61.6348C542.715 59.817 546.455 56.4026 548.5 53.7733C552.873 48.1505 559 41.7733 561.847 35.6932C564.317 33.0926 567.156 24.5067 568.039 21.0721C569.236 16.4191 567.563 13.2013 565.915 9.08206C565.099 7.04209 562.19 6.12605 561.053 4.07834C560.368 2.84566 557.855 1.52927 556.474 1.52927C554.096 1.52927 550.304 1.46291 547.968 2.29325C544.281 3.60422 541.428 4.28179 539.141 7.81622C537.154 10.8866 535.506 15.5879 535.506 19.2634C535.506 22.7059 535.266 12.1237 533.595 9.11436C532.463 7.0769 530.995 5.24032 529.346 3.59138C527.793 2.03861 523.12 2.65745 521.248 1.61748C518.171 -0.0918748 513.827 2.22882 510.65 2.8063C505.433 3.75485 503.672 6.86071 501.729 11.3032C500.739 13.5651 500.274 16.1688 499.793 18.5727C499.351 20.785 498.375 25.9375 499.581 28.1081C500.028 28.913 498.824 29.0654 499.124 29.964C499.563 31.2822 500.497 36.4267 501.13 37.6932C501.781 38.9949 502.674 39.8514 503.136 41.1864C503.56 42.4097 504.375 46.2044 505.001 47.3168Z" stroke="black" stroke-linecap="round" stroke-linejoin="round"/>
</svg>
