<svg width="396" height="316" viewBox="0 0 396 316" fill="none" xmlns="http://www.w3.org/2000/svg">
<g filter="url(#filter0_d)">
<rect x="8" y="7" width="380" height="300" rx="3.15" fill="white"/>
<path d="M24.848 240H28.736V232.92H35.624V240H39.512V222.84H35.624V229.848H28.736V222.84H24.848V240ZM47.1629 237.84C45.8909 237.84 45.3389 237.24 45.3389 236.328C45.3389 234.984 46.5149 234.552 48.5309 234.552H49.8749V235.608C49.8749 237 48.6989 237.84 47.1629 237.84ZM46.1309 240.264C48.0989 240.264 49.2029 239.496 49.9229 238.488V240H53.3069V231.816C53.3069 228.408 51.1229 227.16 48.0509 227.16C44.9789 227.16 42.6269 228.48 42.4109 231.456H45.6989C45.8429 230.376 46.4669 229.68 47.8349 229.68C49.4189 229.68 49.8749 230.496 49.8749 231.984V232.488H48.4589C44.6189 232.488 41.9309 233.592 41.9309 236.52C41.9309 239.16 43.8509 240.264 46.1309 240.264ZM66.1098 230.544C66.1098 228.432 63.9498 227.16 60.9978 227.16C58.3818 227.16 56.0298 228.456 55.6938 231.456H58.7898C59.0778 230.376 59.8218 229.824 60.9018 229.824C62.1258 229.824 62.5578 230.352 62.5578 231.096V231.144C62.5578 232.032 62.0298 232.488 60.9258 232.488H59.5098V234.648H61.1418C62.4138 234.648 62.9898 235.128 62.9898 236.064V236.136C62.9898 237.144 62.3658 237.72 61.1178 237.72C59.5818 237.72 58.8378 237.024 58.5258 235.728H55.4298C55.7658 238.536 57.6378 240.264 61.1658 240.264C64.4058 240.264 66.5418 238.56 66.5418 236.28V236.208C66.5418 234.624 65.5098 233.688 63.7098 233.4C65.3178 233.064 66.1098 232.032 66.1098 230.592V230.544ZM68.9038 240H74.7598C77.9278 240 79.5838 238.632 79.5838 236.28V236.256C79.5838 234.6 78.5038 233.712 76.6798 233.4C78.3118 233.016 79.0798 232.032 79.0798 230.592V230.544C79.0798 228.36 77.1838 227.448 74.3758 227.448H68.9038V240ZM73.5598 229.632C74.8318 229.632 75.5278 229.92 75.5278 230.976V231C75.5278 232.032 74.9518 232.488 73.7038 232.488H72.3358V229.632H73.5598ZM74.1598 234.648C75.4558 234.648 76.0558 235.176 76.0558 236.232V236.256C76.0558 237.384 75.3598 237.84 73.9918 237.84H72.3358V234.648H74.1598ZM86.4676 237.84C85.1956 237.84 84.6436 237.24 84.6436 236.328C84.6436 234.984 85.8196 234.552 87.8356 234.552H89.1796V235.608C89.1796 237 88.0036 237.84 86.4676 237.84ZM85.4356 240.264C87.4036 240.264 88.5076 239.496 89.2276 238.488V240H92.6116V231.816C92.6116 228.408 90.4276 227.16 87.3556 227.16C84.2836 227.16 81.9316 228.48 81.7156 231.456H85.0036C85.1476 230.376 85.7716 229.68 87.1396 229.68C88.7236 229.68 89.1796 230.496 89.1796 231.984V232.488H87.7636C83.9236 232.488 81.2356 233.592 81.2356 236.52C81.2356 239.16 83.1556 240.264 85.4356 240.264ZM103.711 240H107.143V227.448H103.711V232.368H99.0545V227.448H95.6225V240H99.0545V234.84H103.711V240ZM113.703 240L118.551 231.624V240H121.983V227.448H118.551L113.703 235.824V227.448H110.271V240H113.703ZM130.797 240.264C134.229 240.264 136.389 238.752 136.797 236.04H133.509C133.293 237.096 132.501 237.792 130.893 237.792C128.997 237.792 127.869 236.592 127.773 234.504H136.821V233.544C136.821 229.056 133.941 227.16 130.701 227.16C127.053 227.16 124.245 229.728 124.245 233.688V233.88C124.245 237.888 127.005 240.264 130.797 240.264ZM127.821 232.368C128.085 230.592 129.141 229.56 130.701 229.56C132.357 229.56 133.317 230.472 133.437 232.368H127.821Z" fill="black"/>
<path d="M29.544 272.144C32.872 272.144 35.096 269.552 35.096 266.32V266.192C35.096 262.976 32.872 260.416 29.512 260.416C26.152 260.416 23.88 262.976 23.88 266.224V266.352C23.88 269.552 26.168 272.144 29.544 272.144ZM29.544 270.992C27.16 270.992 25.32 269.104 25.32 266.336V266.208C25.32 263.488 26.856 261.536 29.512 261.536C32.152 261.536 33.656 263.616 33.656 266.176V266.304C33.656 269.072 32.088 270.992 29.544 270.992ZM42.5928 272H43.9208V263.632H37.3128V272H38.6408V264.752H42.5928V272ZM47.9376 272L52.2096 265.552V272H53.5376V263.632H52.2096L47.9376 270.08V263.632H46.6096V272H47.9376ZM59.5348 272.144C61.5508 272.144 63.0068 270.8 63.1828 268.992H61.9508C61.8068 270.352 60.7348 271.04 59.5508 271.04C57.9348 271.04 56.8148 269.952 56.8148 267.904V267.776C56.8148 265.808 57.9828 264.592 59.5028 264.592C60.6548 264.592 61.6148 265.088 61.8228 266.416H63.1348C62.8788 264.288 61.2468 263.488 59.5028 263.488C57.2628 263.488 55.4388 265.216 55.4388 267.776V267.904C55.4388 270.496 57.1988 272.144 59.5348 272.144ZM67.4118 271.088C66.2438 271.088 65.8278 270.544 65.8278 269.68C65.8278 268.448 67.0598 268.032 68.7398 268.032H69.8918V269.072C69.8918 270.368 68.8198 271.088 67.4118 271.088ZM67.2838 272.144C68.5158 272.144 69.2678 271.728 69.8918 270.944V272H71.2198V266.48C71.2198 264.144 69.7638 263.488 68.1638 263.488C66.5478 263.488 65.0278 264.192 64.8518 266.096H66.1798C66.3078 265.072 66.9478 264.592 68.0998 264.592C69.3798 264.592 69.8918 265.152 69.8918 266.48V267.088H68.6918C66.5478 267.088 64.4998 267.744 64.4998 269.68C64.4998 271.392 65.7318 272.144 67.2838 272.144ZM79.2684 272H80.5964V263.632H79.2684V267.152H75.1564V263.632H73.8284V272H75.1564V268.272H79.2684V272ZM84.6095 272L88.8815 265.552V272H90.2095V263.632H88.8815L84.6095 270.08V263.632H83.2815V272H84.6095ZM96.1586 272.144C98.0466 272.144 99.4386 271.264 99.7266 269.584H98.3986C98.2226 270.56 97.4706 271.04 96.1746 271.04C94.4626 271.04 93.5506 269.984 93.4866 268.08H99.7906V267.648C99.7906 264.656 97.9666 263.488 96.0306 263.488C93.7266 263.488 92.1106 265.248 92.1106 267.776V267.904C92.1106 270.48 93.7906 272.144 96.1586 272.144ZM93.5346 267.008C93.7586 265.52 94.6706 264.592 96.0306 264.592C97.4066 264.592 98.3026 265.28 98.4306 267.008H93.5346ZM111.103 272H112.719L108.831 267.568L112.415 263.632H110.863L107.391 267.536V263.632H106.063V272H107.391V267.728L111.103 272ZM116.459 271.088C115.291 271.088 114.875 270.544 114.875 269.68C114.875 268.448 116.107 268.032 117.787 268.032H118.939V269.072C118.939 270.368 117.867 271.088 116.459 271.088ZM116.331 272.144C117.563 272.144 118.315 271.728 118.939 270.944V272H120.267V266.48C120.267 264.144 118.811 263.488 117.211 263.488C115.595 263.488 114.075 264.192 113.899 266.096H115.227C115.355 265.072 115.995 264.592 117.147 264.592C118.427 264.592 118.939 265.152 118.939 266.48V267.088H117.739C115.595 267.088 113.547 267.744 113.547 269.68C113.547 271.392 114.779 272.144 116.331 272.144ZM126.907 271.04C125.275 271.04 124.155 270.032 124.155 267.888V267.76C124.155 265.616 125.339 264.592 126.891 264.592C128.299 264.592 129.467 265.648 129.467 267.76V267.888C129.467 269.92 128.571 271.04 126.907 271.04ZM122.875 274.912H124.203V270.624C124.683 271.456 125.659 272.144 127.035 272.144C129.339 272.144 130.843 270.384 130.843 267.824V267.696C130.843 265.088 129.227 263.488 127.035 263.488C125.819 263.488 124.683 264.224 124.203 265.04V263.632H122.875V274.912ZM138.622 263.632H131.886V264.752H134.59V272H135.918V264.752H138.622V263.632ZM143.613 272.144C145.997 272.144 147.741 270.4 147.741 267.872V267.744C147.741 265.232 145.997 263.488 143.629 263.488C141.261 263.488 139.517 265.248 139.517 267.76V267.888C139.517 270.336 141.229 272.144 143.613 272.144ZM143.629 271.04C141.933 271.04 140.893 269.792 140.893 267.888V267.76C140.893 265.84 141.949 264.592 143.629 264.592C145.293 264.592 146.365 265.84 146.365 267.776V267.888C146.365 269.776 145.309 271.04 143.629 271.04ZM155.849 272V263.632H154.521V266.944C154.089 267.52 153.369 267.872 152.473 267.872C151.305 267.872 150.649 267.216 150.649 265.744V263.632H149.321V265.808C149.321 268.112 150.617 269.024 152.121 269.024C153.241 269.024 154.025 268.624 154.521 268.096V272H155.849ZM163.572 272H165.188L161.299 267.568L164.884 263.632H163.332L159.86 267.536V263.632H158.532V272H159.86V267.728L163.572 272ZM168.11 272L172.382 265.552V272H173.71V263.632H172.382L168.11 270.08V263.632H166.782V272H168.11Z" fill="#636363"/>
<mask id="mask0" mask-type="alpha" maskUnits="userSpaceOnUse" x="8" y="7" width="380" height="200">
<path d="M8 10.15C8 8.4103 9.4103 7 11.15 7H384.85C386.59 7 388 8.4103 388 10.15V207H8V10.15Z" fill="#C4C4C4"/>
</mask>
<g mask="url(#mask0)">
<rect x="-62" y="-111" width="529" height="318" fill="#F8F1FF"/>
</g>
<rect x="8.42695" y="7.42695" width="379.146" height="299.146" rx="3.30291" stroke="#CCCCCC" stroke-width="0.853907"/>
</g>
<defs>
<filter id="filter0_d" x="0" y="0" width="396" height="316" filterUnits="userSpaceOnUse" color-interpolation-filters="sRGB">
<feFlood flood-opacity="0" result="BackgroundImageFix"/>
<feColorMatrix in="SourceAlpha" type="matrix" values="0 0 0 0 0 0 0 0 0 0 0 0 0 0 0 0 0 0 127 0"/>
<feOffset dy="1"/>
<feGaussianBlur stdDeviation="4"/>
<feColorMatrix type="matrix" values="0 0 0 0 0 0 0 0 0 0 0 0 0 0 0 0 0 0 0.08 0"/>
<feBlend mode="normal" in2="BackgroundImageFix" result="effect1_dropShadow"/>
<feBlend mode="normal" in="SourceGraphic" in2="effect1_dropShadow" result="shape"/>
</filter>
</defs>
</svg>
