<svg width="105" height="105" viewBox="0 0 105 105" fill="none" xmlns="http://www.w3.org/2000/svg">
<path d="M50.5656 31.7503L60.0993 22.0442C66.5878 16.3465 77.0299 16.867 82.4077 22.3625L83.4421 23.3969C89.4714 29.4261 89.0569 39.4257 83.5582 45.7749L71.4483 57.8848C65.2533 63.4216 55.4626 63.4366 49.4317 57.4073L48.3972 56.3729C47.5883 55.5639 46.8887 54.687 46.2969 53.7619" stroke="black" stroke-width="3.64705" stroke-miterlimit="10" stroke-linecap="round"/>
<path d="M56.3796 73.1844L46.7216 82.9735C40.1652 88.512 30.3728 88.5253 24.3436 82.496L23.3091 81.4616C22.5002 80.6526 21.7708 79.7955 21.2088 78.8506C17.8767 73.2408 18.1038 64.8294 23.3406 59.5925L28.1597 54.7735L35.4505 47.4827C41.498 41.4352 51.2887 41.4203 57.3196 47.4512L58.354 48.4856C58.9724 49.1039 59.9421 50.3771 60.4328 51.0667" stroke="black" stroke-width="3.64705" stroke-miterlimit="10" stroke-linecap="round"/>
</svg>
