<svg width="105" height="105" viewBox="0 0 105 105" fill="none" xmlns="http://www.w3.org/2000/svg">
<path d="M48.9922 67.163L55.3812 57.7603" stroke="black" stroke-width="2.81818" stroke-miterlimit="10" stroke-linecap="round"/>
<path d="M31.7734 83.802L51.2603 55.1245" stroke="black" stroke-width="2.81818" stroke-miterlimit="10" stroke-linecap="round"/>
<path d="M24.9034 102.294C30.3729 102.294 34.8068 97.9439 34.8068 92.5779C34.8068 87.2119 30.3729 82.8618 24.9034 82.8618C19.4339 82.8618 15 87.2119 15 92.5779C15 97.9439 19.4339 102.294 24.9034 102.294Z" stroke="black" stroke-width="2.81818" stroke-miterlimit="10" stroke-linecap="round"/>
<path d="M63.2206 57.2778H61.959C61.2263 57.2778 60.6328 56.6844 60.6328 55.9516V48.1055C60.6328 47.3728 61.2263 46.7793 61.959 46.7793H63.2206C63.9533 46.7793 64.5468 47.3728 64.5468 48.1055V55.9516C64.5468 56.6827 63.9516 57.2778 63.2206 57.2778Z" fill="black"/>
<path d="M35.1953 65.6594V36.9902C35.1953 32.8143 38.6136 29.4292 42.8293 29.4292H82.7943C87.01 29.4292 90.4283 32.8143 90.4283 36.9902V69.4606C90.4283 73.6365 87.01 77.0216 82.7943 77.0216H47.0201" stroke="black" stroke-width="2.81818" stroke-miterlimit="10" stroke-linecap="round"/>
<path d="M48.5128 28.8357C48.5128 15.7892 48.2127 11.489 50.1589 8.22651C53.3335 2.90679 59.2898 2 63.1822 2C67.0746 2 72.7624 3.77877 75.307 8.07897C76.8006 10.6021 77.7025 13.4169 77.7025 28.8357" stroke="black" stroke-width="2.81818" stroke-miterlimit="10" stroke-linecap="round"/>
</svg>
