<svg width="163" height="105" viewBox="0 0 163 105" fill="none" xmlns="http://www.w3.org/2000/svg">
<path d="M38.2141 37.3955C28.7384 37.3955 20.8906 45.5898 20.8906 54.4703" stroke="black" stroke-width="2.81818" stroke-miterlimit="10" stroke-linecap="round"/>
<path d="M121.016 43.5293C124.505 43.5293 128.973 45.3528 128.958 51.896C128.945 57.4892 124.812 60.508 121.102 61.5159" stroke="black" stroke-width="2.81818" stroke-miterlimit="10" stroke-linecap="round"/>
<path d="M37.798 88.4545C28.9174 88.4545 21.0547 81.2548 21.0547 72.3743" stroke="black" stroke-width="2.81818" stroke-miterlimit="10" stroke-linecap="round"/>
<path d="M70.1234 72.3743C70.1234 81.2548 61.7634 88.4545 52.8828 88.4545" stroke="black" stroke-width="2.81818" stroke-miterlimit="10" stroke-linecap="round"/>
<path d="M53.1328 37.3955C62.5173 37.3955 70.1248 44.5951 70.1248 53.4757" stroke="black" stroke-width="2.81818" stroke-miterlimit="10" stroke-linecap="round"/>
<path d="M32.2422 27.6731L38.4588 37.3958" stroke="black" stroke-width="2.81818" stroke-miterlimit="10" stroke-linecap="round"/>
<path d="M39.5391 27.5188L45.7556 37.2432" stroke="black" stroke-width="2.81818" stroke-miterlimit="10" stroke-linecap="round"/>
<path d="M46.668 27.3662L52.8845 37.0889" stroke="black" stroke-width="2.81818" stroke-miterlimit="10" stroke-linecap="round"/>
<path d="M20.8884 54.4705C17.4585 54.4705 12.9312 56.294 13.0008 62.552C13.0621 68.0707 17.0755 71.2137 20.8884 72.0426" stroke="black" stroke-width="2.81818" stroke-miterlimit="10" stroke-linecap="round"/>
<path d="M89.1069 26.7859C79.6312 26.7859 71.9492 33.9855 71.9492 42.8661" stroke="black" stroke-width="2.81818" stroke-miterlimit="10" stroke-linecap="round"/>
<path d="M88.6925 77.8448C79.8119 77.8448 71.9492 70.6452 71.9492 61.7646" stroke="black" stroke-width="2.81818" stroke-miterlimit="10" stroke-linecap="round"/>
<path d="M104.027 26.7859C113.412 26.7859 121.019 34.6486 121.019 43.5292" stroke="black" stroke-width="2.81818" stroke-miterlimit="10" stroke-linecap="round"/>
<path d="M104.105 26.7861C104.105 26.7861 108.581 18 121.015 18C130.643 18 139.913 25.9572 141.736 39.2192C143.008 48.4695 142.234 59.278 132.121 76.6844" stroke="black" stroke-width="2.81818" stroke-miterlimit="10" stroke-linecap="round"/>
<path d="M147.709 41.2085C147.709 41.2085 150.362 57.1229 139.918 76.6844" stroke="black" stroke-width="2.81818" stroke-miterlimit="10" stroke-linecap="round"/>
<path d="M134.401 54.5234C134.401 54.5234 133.119 65.5773 123.715 76.6296" stroke="black" stroke-width="2.81818" stroke-miterlimit="10" stroke-linecap="round"/>
<path d="M35.8895 61.5158H35.0606C34.3279 61.5158 33.7344 60.9223 33.7344 60.1896V54.8848C33.7344 54.1521 34.3279 53.5586 35.0606 53.5586H35.8895C36.6222 53.5586 37.2157 54.1521 37.2157 54.8848V60.1896C37.2157 60.9223 36.6222 61.5158 35.8895 61.5158Z" fill="black"/>
<path d="M55.2059 61.5158H54.377C53.6443 61.5158 53.0508 60.9223 53.0508 60.1896V54.8848C53.0508 54.1521 53.6443 53.5586 54.377 53.5586H55.2059C55.9386 53.5586 56.5321 54.1521 56.5321 54.8848V60.1896C56.5321 60.9223 55.9386 61.5158 55.2059 61.5158Z" fill="black"/>
<path d="M45.5036 56.0452C45.5036 56.0452 45.6015 62.9248 45.1721 64.4997C44.6748 66.3232 42.7684 67.5665 40.6133 68.8927" stroke="black" stroke-width="2.81818" stroke-miterlimit="10" stroke-linecap="round"/>
<path d="M32.9062 73.4517C36.5533 77.0987 40.2004 78.7565 44.8421 78.7565C49.4838 78.7565 53.5453 77.5132 57.441 73.4517" stroke="black" stroke-width="2.81818" stroke-miterlimit="10" stroke-linecap="round"/>
<path d="M86.952 50.4089H86.1231C85.3904 50.4089 84.7969 49.8154 84.7969 49.0827V43.7779C84.7969 43.0451 85.3904 42.4517 86.1231 42.4517H86.952C87.6847 42.4517 88.2782 43.0451 88.2782 43.7779V49.0827C88.2782 49.8154 87.6847 50.4089 86.952 50.4089Z" fill="black"/>
<path d="M106.261 50.4089H105.432C104.699 50.4089 104.105 49.8154 104.105 49.0827V43.7779C104.105 43.0451 104.699 42.4517 105.432 42.4517H106.261C106.993 42.4517 107.587 43.0451 107.587 43.7779V49.0827C107.587 49.8154 106.993 50.4089 106.261 50.4089Z" fill="black"/>
<path d="M96.5661 44.9382C96.5661 44.9382 96.664 51.8179 96.2346 53.3928C95.7373 55.2163 93.8309 56.4596 91.6758 57.7858" stroke="black" stroke-width="2.81818" stroke-miterlimit="10" stroke-linecap="round"/>
<path d="M83.9648 62.3447C87.6119 65.9918 91.5905 67.6495 96.2322 67.6495C100.874 67.6495 104.521 66.3233 108.5 62.3447" stroke="black" stroke-width="2.6524" stroke-miterlimit="10" stroke-linecap="round"/>
<path d="M121.018 61.7646C121.018 70.6452 112.658 77.8448 103.777 77.8448" stroke="black" stroke-width="2.81818" stroke-miterlimit="10" stroke-linecap="round"/>
</svg>
