<svg width="261" height="165" viewBox="0 0 261 165" fill="none" xmlns="http://www.w3.org/2000/svg">
<path d="M57.5 138.204C65 129.204 72.3561 120.848 80 113.204M87.5 105.163C89.2981 100.918 103.827 85.8774 106.5 83.2043C108.72 80.9845 110.581 77.7721 113.5 74.2043C118 68.7044 117.5 68.7044 122.5 61.7044C132.559 41.2044 153.5 -5.29578 150 21.2044C144.5 47.7046 147 79.2044 136.685 107.101C135.11 110.566 135.193 113.808 130.648 113.808C124.718 113.808 118.78 110.532 113.5 108.704C109.064 107.169 104.204 107.101 99.5 107.101C97.2848 107.101 86 108.704 87.5 105.163Z" stroke="black" stroke-linecap="round" stroke-linejoin="round"/>
<path d="M48.5 132.704C51.8636 127.846 67.3503 109.354 71.5 105.204C78.5389 98.1654 84.0831 91.4866 91.0009 84.2048C100.501 74.2048 107.015 62.5091 115.001 51.7044C123.501 40.2044 129.501 26.9766 137.501 16.7044C143.854 8.54645 148.001 -0.478576 155.501 1.20439C159.956 2.20407 158.431 21.9408 158.431 25.7043C158.431 29.6962 158.431 40.3226 158.431 43.7043C158.431 50.2043 158.766 52.6614 158.431 55.7043C157.001 68.7043 157 67.7043 156 76.2043" stroke="black" stroke-linecap="round" stroke-linejoin="round"/>
<path d="M80 113.204C83.5 112.704 91.5 114.285 95.8243 114.285C98.6373 114.285 100.5 113.704 104.5 114.285C105.987 114.501 107.5 114.704 109.5 115.204C111.164 115.62 112.841 116.184 114.5 116.704C116.572 117.354 118.205 118.138 120.333 118.563C122.821 119.061 132.457 120.148 132.631 123.45C132.92 128.931 132.612 134.194 132 139.704C131.5 144.204 131 149.653 131 153.704C131 156.204 131.532 158.005 132.631 160.204C132.829 160.6 134.638 161.963 135 162.204C136.5 163.204 137.52 163.458 139 163.704C142 164.204 145.445 163.523 147 162.704C151.384 160.397 153 159.704 156.931 157.093C160.801 154.523 164.2 150.805 167 147.204C167.968 145.959 169.737 143.941 168.5 142.704C167.5 141.704 165.304 143.883 164.789 144.319C162.311 146.416 160.794 147.14 158 148.704C156.424 149.587 154 150.704 152 151.704C150.428 152.491 147.782 153.704 146 153.704C144.004 153.704 142.5 152.117 142.5 149.704C142.5 147.567 143.266 144.807 143.266 142.704C143.266 140.204 144.24 134.157 144.5 132.204C145.137 127.43 145.501 123.914 146.5 119.204C146.933 117.164 147.799 113.706 148.5 111.704C149.491 108.874 149.926 107.657 150.5 104.704C151.104 101.596 151.5 100.704 152.5 96.7044C152.898 95.1125 153.772 91.3555 154 89.7044C154.229 88.0413 156.239 75.8739 156.5 74.2043" stroke="black" stroke-linecap="round" stroke-linejoin="round"/>
<path d="M25.2806 124.448C23.0735 131.041 25.2806 135.738 29.6951 134.961C33.806 134.238 37.5165 128.734 38.2557 124.448C39.4382 117.59 36.5073 111.597 30.7987 108.588C23.5246 104.753 14.6467 109.539 9.43835 115.031C4.39355 120.35 1.73896 128.368 1.0004 136.57C1.0004 143.661 0.86129 150.325 5.78525 155.517C10.5462 160.536 17.188 163.86 25.4754 162.272C36.3159 160.193 44.0174 152.826 51.3976 145.045C57.053 139.082 59.7521 135.073 65.3756 129.143" stroke="black" stroke-linecap="round" stroke-linejoin="round"/>
<path d="M24.5235 126.776C23.4208 122.877 28.5166 117.552 27.8281 116.639C26.3579 114.69 22.6805 114.689 18.275 117.419C13.8696 120.148 11.522 126.572 10.5582 129.895C8.45616 137.142 7.77047 144.727 13.1291 149.779C18.1344 154.499 26.9566 151.97 32.5 148.204C35.6109 146.091 40.5 140.704 45 136.204C48.199 133.005 59.4495 118.44 62.5 115.204" stroke="black" stroke-linecap="round" stroke-linejoin="round"/>
<path d="M208.431 101.777C211.015 100.215 214.068 97.5147 217.373 98.6763C219.915 99.5697 221.186 101.268 220.875 103.358C220.637 104.959 219.426 106.9 218.21 108.04C216.84 109.324 215.092 110.543 213.371 111.446C210.54 112.93 206.867 113.148 204.171 111.783C202.738 111.057 202.151 110.512 201.364 109.317C200.745 108.377 200.221 107.026 200.113 105.927C199.888 103.627 199.934 102.021 200.864 99.9532C201.81 97.8467 203.364 95.2711 205.366 93.5686C208.8 90.6495 211.871 88.0352 216.374 86.3327C219.052 85.32 218.874 85.32 222.876 84.63C224.067 84.4246 225.877 84.2043 227.879 84.2043C230.364 84.2043 232.381 84.63 235.226 85.32C241.999 86.9625 248.139 89.827 252.392 94.4197C255.001 97.2377 256.76 100.84 257.939 104.321C259.22 108.102 259.825 111.913 259.921 115.831C260.019 119.843 260.145 123.665 259.482 127.654C258.975 130.704 258.714 133.81 258.082 136.842C257.143 141.344 256.207 145.961 254.462 150.3C253.559 152.547 252.811 154.849 251.697 157.014C251.008 158.355 250.612 159.942 249.87 161.204" stroke="black" stroke-linecap="round" stroke-linejoin="round"/>
<path d="M208.719 101.573C209.679 99.4028 210.93 97.5982 212.677 95.4966C214.727 93.0297 217.966 90.7222 223.462 90.2882C227.717 89.9521 231.339 90.6755 234.659 91.5901C241.431 93.4555 246.625 98.9686 248.648 104.611C249.623 109.819 250.517 117.415 249.647 122.406C249.254 124.657 249.147 125.444 248.648 128.482C248.53 129.196 248.389 130.397 248.148 131.086C247.904 131.784 245.486 131.015 244.651 130.652C242.217 129.595 239.832 128.645 237.279 127.97C233.66 127.013 232.161 126.746 228.164 126.312C226.665 126.149 223.686 125.896 222.169 125.878C220.068 125.853 219.274 125.878 217.173 125.878C213.676 125.878 211.366 126.422 208.68 127.18C205.484 128.083 202.401 130.113 200.329 132.346C198.491 134.326 196.573 136.707 195.731 139.171C194.485 142.818 194.849 148.475 196.69 151.92C197.845 154.08 199.002 155.167 201.186 156.694C202.682 157.739 204.389 158.613 206.182 159.288C209.921 160.696 213.433 161.622 217.56 161.739C218.967 161.778 220.671 161.739 222.169 161.739C223.775 161.739 226.166 161.305 228.664 161.034C230.501 160.835 230.898 160.638 232.661 160.166C233.199 160.022 234.152 159.498 234.659 159.288C236.133 158.679 240.592 156.26 243.152 154.09C243.578 153.879 242.212 157.378 242.153 157.562C241.753 158.814 240.647 161.034 240.147 163.204" stroke="black" stroke-linecap="round" stroke-linejoin="round"/>
<path d="M241.437 139.643C241.381 138.115 241.038 137.295 239.59 136.278C238.759 135.695 237.896 135.387 236.925 135.045C235.063 134.391 233.208 133.71 231.276 133.262C226.789 132.222 221.748 131.877 217.234 132.431C213.95 132.835 210.09 133.735 207.649 135.662C205.61 137.272 203.987 138.958 203.278 141.325C202.525 143.835 202.893 146.826 204.525 149.176C206.084 151.422 209.434 153.092 212.101 154.124C214.505 155.055 217.229 155.534 219.806 155.452C221.733 155.391 223.626 155.371 225.533 155.179C227.447 154.987 228.912 154.449 230.668 153.899C232.374 153.365 233.881 152.48 235.168 151.41C235.792 150.892 236.376 150.295 236.92 149.712C237.298 149.308 237.917 148.913 238.18 148.449C239.147 146.744 240.218 145.056 241.191 143.366C241.762 142.373 241.825 141.029 242.062 139.922" stroke="black" stroke-linecap="round" stroke-linejoin="round"/>
<path d="M240 162.716C240 164.162 240.975 164.09 241.521 164.162C242.536 164.296 243.694 164.085 244.682 163.897C245.996 163.646 247.199 163.218 248.403 162.716C248.833 162.538 249.5 162.397 250.5 160.704" stroke="black" stroke-linecap="round" stroke-linejoin="round"/>
</svg>
