<svg width="71" height="73" viewBox="0 0 71 73" fill="none" xmlns="http://www.w3.org/2000/svg">
<path d="M8.00076 46.3168C12.1435 53.6816 15.9437 62.5586 21.9023 68.6925C23.4023 70.2366 23.9023 71.1925 25.4023 72.1925C28.4023 70.6925 34.292 67.9746 36.751 65.7888C38.5846 64.159 40.8956 61.9681 42.9349 60.6348C45.715 58.817 49.455 55.4026 51.5 52.7733C55.8733 47.1505 62 40.7733 64.8466 34.6932C67.3172 32.0926 69.156 24.5067 70.0392 21.0721C71.2357 16.4191 69.5627 13.2013 67.915 9.08206C67.099 7.04209 64.1905 6.12605 63.0529 4.07834C62.368 2.84566 59.8552 1.52927 58.474 1.52927C56.0958 1.52927 52.3037 1.46291 49.9684 2.29325C46.2813 3.60422 43.4281 4.28179 41.1411 7.81622C39.1544 10.8866 37.5063 15.5879 37.5063 19.2634C37.5063 22.7059 37.2663 12.1237 35.5945 9.11436C34.4626 7.0769 32.995 5.24032 31.3461 3.59138C29.7933 2.03861 25.1199 2.65745 23.2479 1.61748C20.1711 -0.0918748 15.8265 2.22882 12.6504 2.8063C7.43342 3.75485 5.6723 6.86071 3.72872 11.3032C2.73914 13.5651 2.27411 16.1688 1.79332 18.5727C1.35087 20.785 0.374973 25.9375 1.5809 28.1081C2.02805 28.913 1.8242 30.0654 2.12375 30.964C2.56313 32.2822 3.49672 35.4267 4.12996 36.6932C4.7808 37.9949 5.67405 38.8514 6.13617 40.1864C6.55962 41.4097 7.37502 45.2044 8.00076 46.3168Z" stroke="black" stroke-linecap="round" stroke-linejoin="round"/>
</svg>
