<svg width="18" height="18" viewBox="0 0 18 18" fill="none" xmlns="http://www.w3.org/2000/svg">
<path fill-rule="evenodd" clip-rule="evenodd" d="M9.58162 2.06301C10.4303 1.2433 11.567 0.789722 12.7469 0.799975C13.9268 0.810228 15.0555 1.28349 15.8898 2.11782C16.7241 2.95216 17.1974 4.08082 17.2077 5.2607C17.2179 6.44059 16.7643 7.5773 15.9446 8.42601L15.9355 8.4353L13.6856 10.6852C13.2294 11.1416 12.6804 11.4945 12.0758 11.72C11.4712 11.9455 10.8252 12.0384 10.1816 11.9923C9.53793 11.9462 8.91175 11.7622 8.34547 11.4529C7.7792 11.1435 7.28608 10.7159 6.89958 10.1992C6.65147 9.86752 6.71923 9.3975 7.05092 9.1494C7.3826 8.90129 7.85262 8.96905 8.10072 9.30074C8.3584 9.64522 8.68714 9.93025 9.06465 10.1365C9.44217 10.3428 9.85963 10.4654 10.2887 10.4961C10.7178 10.5269 11.1485 10.465 11.5515 10.3146C11.9546 10.1643 12.3206 9.92898 12.6247 9.62474L14.87 7.37951C15.4137 6.81418 15.7145 6.05827 15.7077 5.27374C15.7009 4.48715 15.3854 3.73471 14.8291 3.17848C14.2729 2.62226 13.5205 2.30675 12.7339 2.29992C11.949 2.2931 11.1928 2.59415 10.6274 3.13838L9.34143 4.41685C9.04769 4.70889 8.57281 4.7075 8.28078 4.41376C7.98874 4.12001 7.99012 3.64514 8.28387 3.3531L9.57387 2.0706L9.58162 2.06301Z" fill="black"/>
<path fill-rule="evenodd" clip-rule="evenodd" d="M5.92451 6.27994C6.5291 6.05441 7.17511 5.96154 7.81874 6.00764C8.46237 6.05374 9.08856 6.23771 9.65483 6.54709C10.2211 6.85648 10.7142 7.28402 11.1007 7.80074C11.3488 8.13243 11.2811 8.60244 10.9494 8.85055C10.6177 9.09865 10.1477 9.03089 9.89958 8.69921C9.6419 8.35473 9.31316 8.0697 8.93565 7.86344C8.55813 7.65719 8.14067 7.53454 7.71159 7.50381C7.2825 7.47308 6.85182 7.53499 6.44877 7.68534C6.04571 7.83569 5.67971 8.07097 5.37558 8.37521L3.13034 10.6204C2.58657 11.1858 2.28578 11.9417 2.29259 12.7262C2.29943 13.5128 2.61494 14.2652 3.17116 14.8215C3.72738 15.3777 4.47982 15.6932 5.26641 15.7C6.05095 15.7068 6.80685 15.4061 7.37217 14.8623L8.64982 13.5846C8.94271 13.2917 9.41759 13.2917 9.71048 13.5846C10.0034 13.8775 10.0034 14.3524 9.71048 14.6453L8.42798 15.9278L8.41868 15.9369C7.56997 16.7567 6.43326 17.2102 5.25338 17.2C4.07349 17.1897 2.94484 16.7165 2.1105 15.8821C1.27616 15.0478 0.802903 13.9191 0.792651 12.7392C0.782398 11.5594 1.23597 10.4226 2.05568 9.57394L2.06482 9.56464L4.31472 7.31474C4.31469 7.31477 4.31476 7.31471 4.31472 7.31474C4.7709 6.85842 5.31997 6.50545 5.92451 6.27994Z" fill="black"/>
</svg>
