<svg width="110" height="102" viewBox="0 0 110 102" fill="none" xmlns="http://www.w3.org/2000/svg">
<path d="M73.6744 50.5C72.9087 46.5 70.2123 42.8589 67.3121 39.8356C64.3465 36.7441 59.555 33.4968 55.7191 31.9097C47.716 28.5983 43.3792 30.6029 40.5233 31.2011C34.7958 32.4006 30.2027 35.8654 26.6387 39.104C23.5079 41.9489 21.5747 43.9717 18.5253 46.8495C15.7216 49.4955 12.5341 52.5691 10.5886 55.1923C6.43077 60.7986 2.48752 66.6131 2.16522 73.35C1.79417 81.1058 5.54984 86.38 11.1527 92.249C13.3146 94.5136 16.176 96.5809 18.8265 97.5373C21.7348 98.5868 23.4216 98.7607 26.5675 98.9112C30.3827 99.0937 32.9889 98.6146 35.5254 97.4307C36.9805 96.7516 39.7989 95.6107 42.2069 93.998C49.0754 89.3978 51.5757 87.7022 54.6886 84.7304C56.6538 82.8543 56.6779 80.989 56.0125 80.0102C54.3026 77.495 53.016 77.3227 51.475 77.4294C48.8814 77.6091 46.7665 79.607 44.669 81.1617C41.4305 83.5621 38.019 86.3458 34.4357 87.4747C31 88.557 28.6654 89.0176 24.7114 87.7717C15.9633 85.015 11.9597 76.3105 14.534 69.1459C16.4243 63.885 22.5524 57.8509 26.5507 54.2177C30.3179 50.7945 34.4313 45.2471 39.1759 43.5475C43.8119 41.8868 49.6206 40.9499 52.9646 42.8267C54.8618 43.8916 57.8469 45.5978 60.2686 48.9879C62.3238 51.8647 64.4479 56.5487 66.7797 57.298C73.8223 59.5611 74.8784 51.9772 72.9087 47.9906" stroke="black" stroke-linecap="round" stroke-linejoin="round"/>
<path d="M40.6082 59.5183C43.6069 66.2963 48.175 68.9626 55.502 73.0004C58.5641 74.6878 61.9029 75.7009 65.5022 75.5004C70.7531 75.2078 74.6389 73.0464 79.0449 69.7633C82.4873 67.1982 85.6021 63.5034 88.2752 60.9515C91.5302 57.8441 93.0102 56.1057 95.1781 53.7003C96.8215 51.877 98.4173 49.7513 99.9125 47.7981C101.034 46.3331 102.773 44.1204 103.923 42.5864C105.748 40.1532 106.655 36.8886 107.269 34.3472C108.076 31.0071 108.138 27.2443 107.879 24.2827C107.619 21.3211 106.833 19.6336 105.56 17.5102C104.908 16.4238 103.083 14.3441 101.779 12.824C101.036 11.9569 98.4825 9.162 97.2911 8.12243C93.1452 4.50492 88.109 3.26051 85.0012 2.74146C81.9706 2.2353 81.5 2.50018 78.9996 2.50025C77.0006 2.5003 74.9323 2.82623 73.502 3.50035C73.502 3.50035 71.7206 3.93256 70.064 5.16375C66.8291 7.56793 65.1816 8.44231 62.502 11.0004C60.3627 13.0427 58.887 14.4552 57.0635 16.8907C55.8838 18.4665 54.3934 21.993 57.0635 24.2827C59.7337 26.5724 64.1099 23.2201 65.5022 21.8909C68.7571 18.7835 71.9018 15.5677 75.9411 13.9991C77.9794 13.2075 80.8369 12.9541 83.5034 13.7095C89.0734 15.2875 95.5872 20.8205 96.9194 27.7627C97.478 30.6734 97.3611 32.658 96.6567 35.6985C96.2616 37.4037 95.8841 38.5098 94.0595 40.943C92.8642 42.5369 90.377 45.1497 88.9799 46.4836C84.06 51.1803 81.385 53.734 75.9602 58.9129C71.7085 62.9718 66.2566 65.5004 60.6549 63.1553C54.2801 60.4866 52.8098 56.3413 48.5052 53.3249C46.4164 51.8613 43.1927 51.4804 41.0554 54.2101C39.5879 56.0843 40.218 59.8498 41.9272 62.3642" stroke="black" stroke-linecap="round" stroke-linejoin="round"/>
</svg>
