<svg width="116" height="20" viewBox="0 0 116 20" fill="none" xmlns="http://www.w3.org/2000/svg">
<path d="M4.63068 15H8.40909L10.8807 6.875H10.9943L13.4659 15H17.2443L21.5341 0.454545H17.1307L15.142 9.43182H15.0284L12.6705 0.454545H9.20455L6.84659 9.40341H6.73295L4.74432 0.454545H0.340909L4.63068 15ZM26.8839 15.1989C29.9094 15.1989 31.8555 13.75 32.2248 11.4773H28.6452C28.418 12.0952 27.7717 12.4432 26.9691 12.4432C25.8043 12.4432 25.1225 11.6761 25.1225 10.625V10.4545H32.2248V9.54545C32.2248 6.07244 30.0941 3.94886 26.7987 3.94886C23.418 3.94886 21.2589 6.19318 21.2589 9.57386C21.2589 13.1037 23.3896 15.1989 26.8839 15.1989ZM25.1225 8.29545C25.1438 7.35085 25.9251 6.70455 26.8839 6.70455C27.8569 6.70455 28.5955 7.35795 28.6168 8.29545H25.1225ZM33.8654 15H37.7575V13.2102H37.8427C38.2972 14.3182 39.3484 15.142 40.8825 15.142C43.212 15.142 45.1722 13.3239 45.1722 9.54545C45.1722 5.59659 43.07 3.94886 40.9109 3.94886C39.2915 3.94886 38.2688 4.88636 37.8427 5.99432H37.7859V0.454545H33.8654V15ZM37.7006 9.54545C37.7006 7.92614 38.354 6.96023 39.4336 6.96023C40.5131 6.96023 41.1381 7.92614 41.1381 9.54545C41.1381 11.1648 40.5131 12.1307 39.4336 12.1307C38.354 12.1307 37.7006 11.1364 37.7006 9.54545ZM46.7578 15H50.7067V10.6818H52.8942C56.2109 10.6818 58.4411 8.71449 58.4339 5.59659C58.4411 2.4858 56.2678 0.454545 53.0362 0.454545H46.7578V15ZM50.7067 7.61364V3.60795H52.0987C53.4837 3.60795 54.3217 4.375 54.3146 5.59659C54.3217 6.8679 53.4837 7.61364 52.0987 7.61364H50.7067ZM62.4911 15.1705C63.9116 15.1705 64.984 14.6875 65.6445 13.4659H65.7298V15H69.3945V7.52841C69.3945 5.51136 67.4485 3.94886 64.4513 3.94886C61.0707 3.94886 59.5011 5.65341 59.3661 7.64205H62.9741C63.0664 6.96733 63.5636 6.64773 64.3093 6.64773C65.0053 6.64773 65.4599 6.94602 65.4741 7.52841C65.4883 8.18182 64.7781 8.38778 62.9457 8.52273C60.6942 8.68608 58.94 9.59517 58.94 11.9886C58.94 14.1619 60.4031 15.1705 62.4911 15.1705ZM63.7695 12.6989C63.1019 12.6989 62.6332 12.3722 62.6332 11.7614C62.6332 11.2003 63.0309 10.767 63.94 10.625C64.565 10.5256 65.0906 10.3977 65.5025 10.2273V11.1364C65.5025 12.1307 64.6573 12.6989 63.7695 12.6989ZM78.2848 15.142C80.6214 15.142 82.5817 13.3239 82.5746 9.54545C82.5817 5.59659 80.4794 3.94886 78.3132 3.94886C76.701 3.94886 75.6783 4.88636 75.245 5.99432H75.1598V4.09091H71.2678V19.0909H75.1882V13.2102H75.245C75.6925 14.3253 76.7365 15.142 78.2848 15.142ZM76.8359 12.1307C75.7564 12.1307 75.1101 11.1506 75.103 9.54545C75.1101 7.94034 75.7564 6.96023 76.8359 6.96023C77.9155 6.96023 78.5476 7.91903 78.5405 9.54545C78.5476 11.179 77.9155 12.1307 76.8359 12.1307ZM89.5011 15.1989C92.5266 15.1989 94.4727 13.75 94.842 11.4773H91.2624C91.0352 12.0952 90.3888 12.4432 89.5863 12.4432C88.4215 12.4432 87.7397 11.6761 87.7397 10.625V10.4545H94.842V9.54545C94.842 6.07244 92.7113 3.94886 89.4158 3.94886C86.0352 3.94886 83.8761 6.19318 83.8761 9.57386C83.8761 13.1037 86.0067 15.1989 89.5011 15.1989ZM87.7397 8.29545C87.761 7.35085 88.5423 6.70455 89.5011 6.70455C90.4741 6.70455 91.2127 7.35795 91.234 8.29545H87.7397ZM96.4826 15H100.403V9.31818C100.41 8.07528 101.248 7.27273 102.221 7.27273C102.633 7.27273 102.974 7.40767 103.301 7.55682L104.437 4.34659C103.997 4.10511 103.443 3.94886 102.875 3.94886C101.71 3.94886 100.808 4.63068 100.403 6.16477H100.289V4.09091H96.4826V15ZM115.634 7.64205C115.534 5.33381 113.617 3.94886 110.463 3.94886C107.346 3.94886 105.421 5.22727 105.435 7.5C105.421 9.21875 106.536 10.3196 108.759 10.7102L110.691 11.0511C111.543 11.2074 111.926 11.4347 111.941 11.8466C111.926 12.3011 111.408 12.5568 110.691 12.5568C109.803 12.5568 109.178 12.1733 109.071 11.4773H105.179C105.392 13.7145 107.324 15.1989 110.662 15.1989C113.681 15.1989 115.904 13.7287 115.918 11.392C115.904 9.77983 114.824 8.84233 112.594 8.4375L110.378 8.03977C109.547 7.89062 109.313 7.59233 109.327 7.27273C109.313 6.81818 109.874 6.5625 110.549 6.5625C111.323 6.5625 111.969 6.97443 112.026 7.64205H115.634Z" fill="#272727"/>
</svg>
