<svg width="87" height="31" viewBox="0 0 87 31" fill="none" xmlns="http://www.w3.org/2000/svg">
<path d="M3.14403 16.2455C4.09395 17.2705 4.9974 18.016 5.8544 18.482C6.72171 18.9479 7.61484 19.1809 8.53379 19.1809C9.29785 19.1809 9.90704 18.9945 10.3614 18.6217C10.8157 18.249 11.0428 17.7572 11.0428 17.1463C11.0428 16.318 10.1239 15.4223 8.28598 14.4594C8.11046 14.3662 7.97106 14.2938 7.86781 14.242C6.08155 13.3101 4.85801 12.4145 4.1972 11.5551C3.53639 10.6957 3.20598 9.64997 3.20598 8.41784C3.20598 6.17101 3.95972 4.33317 5.4672 2.90431C6.98501 1.47545 8.93647 0.761022 11.3216 0.761022C12.5813 0.761022 13.7893 0.983634 14.9457 1.42886C16.1125 1.87408 17.2121 2.53156 18.2447 3.4013L15.6427 7.88978C14.827 7.18571 14.0836 6.66283 13.4125 6.32114C12.7413 5.97946 12.1218 5.80862 11.5539 5.80862C10.9344 5.80862 10.4181 5.98981 10.0051 6.3522C9.59212 6.70424 9.38562 7.13911 9.38562 7.65681C9.38562 8.29876 10.16 9.01837 11.7088 9.81563C12.256 10.0952 12.6794 10.323 12.9788 10.499C14.5689 11.3791 15.6737 12.2799 16.2932 13.2014C16.9127 14.1126 17.2225 15.2567 17.2225 16.6338C17.2225 19.067 16.381 21.0135 14.6979 22.4734C13.0149 23.923 10.7279 24.6478 7.83684 24.6478C6.31903 24.6478 4.89931 24.3268 3.57769 23.6849C2.25606 23.0326 1.0635 22.0696 0 20.7961L3.14403 16.2455Z" fill="black"/>
<path d="M31.6342 9.53607L30.0234 13.0616C29.311 12.5543 28.6554 12.1867 28.0565 11.9589C27.4576 11.7208 26.8639 11.6017 26.2754 11.6017C25.7798 11.6017 25.3668 11.7156 25.0364 11.9434C24.7163 12.1712 24.5562 12.4507 24.5562 12.7821C24.5562 13.2584 25.0932 13.7036 26.167 14.1177C26.6419 14.2938 27.0136 14.4439 27.2821 14.5681C28.7793 15.2204 29.8273 15.8986 30.4261 16.6027C31.025 17.2964 31.3244 18.1662 31.3244 19.2119C31.3244 20.8582 30.6894 22.1835 29.4194 23.1879C28.1494 24.1819 26.4561 24.6789 24.3394 24.6789C23.1417 24.6789 21.9956 24.5184 20.9011 24.1974C19.817 23.8868 18.7638 23.4105 17.7416 22.7685L19.5847 19.01C20.6378 19.6623 21.5206 20.1231 22.2331 20.3923C22.9455 20.6615 23.6167 20.7961 24.2465 20.7961C24.7937 20.7961 25.2326 20.677 25.563 20.4389C25.8934 20.1904 26.0586 19.8746 26.0586 19.4915C26.0586 18.9013 25.2997 18.2956 23.7819 17.6743C23.3275 17.488 22.9765 17.343 22.7287 17.2395C21.5206 16.7011 20.6636 16.1161 20.1577 15.4845C19.6518 14.8529 19.3988 14.066 19.3988 13.1237C19.3988 11.6224 20.0235 10.3748 21.2728 9.38076C22.5222 8.38677 24.1278 7.88978 26.0895 7.88978C27.0808 7.88978 28.0462 8.02956 28.9858 8.30912C29.9254 8.58868 30.8082 8.99766 31.6342 9.53607Z" fill="black"/>
<path d="M36.6758 23.2811L32.2308 8.38677H37.9458L39.3087 15.1583C39.3294 15.2515 39.3603 15.3861 39.4016 15.5621C39.5978 16.4733 39.7062 17.2498 39.7269 17.8918C39.8405 17.488 39.985 17.0583 40.1605 16.6027C40.3464 16.1368 40.5684 15.6346 40.8265 15.0962L44.0635 8.38677H49.9953L37.8529 31H32.0759L36.6758 23.2811Z" fill="black"/>
<path d="M53.1784 0H58.7385L54.8975 24.0731H49.3529L53.1784 0Z" fill="black"/>
<path d="M65.8555 15.0341L71.7873 8.38677H78.7413L71.0903 16.0281L76.2013 24.0731H69.6035L65.6386 16.6648L64.4615 24.0731H58.9789L62.7424 0H68.2716L65.8555 15.0341Z" fill="black"/>
<path d="M80.6544 3.71192C80.6544 2.90431 80.9383 2.21059 81.5062 1.63076C82.0844 1.05094 82.7814 0.761022 83.5971 0.761022C84.4541 0.761022 85.1665 1.04058 85.7344 1.5997C86.3023 2.15882 86.5862 2.86289 86.5862 3.71192C86.5862 4.5506 86.2971 5.25985 85.7189 5.83968C85.1407 6.41951 84.4334 6.70942 83.5971 6.70942C82.7814 6.70942 82.0844 6.41951 81.5062 5.83968C80.9383 5.2495 80.6544 4.54025 80.6544 3.71192ZM77.7736 24.0731L80.2362 8.38677H85.7963L83.3183 24.0731H77.7736Z" fill="black"/>
</svg>
