<svg width="136" height="23" viewBox="0 0 136 23" fill="none" xmlns="http://www.w3.org/2000/svg">
<path d="M18.9027 18L23.7027 0.149999H19.8527L16.9277 12.45H16.8777L13.8277 0.149999H10.1527L7.05273 12.3H7.00273L4.17773 0.149999H0.252734L4.97773 18H8.95273L11.9277 5.85H11.9777L15.0027 18H18.9027ZM32.4201 10.15H26.6451C26.6618 9.9 26.7118 9.61667 26.7951 9.3C26.8951 8.98333 27.0535 8.68333 27.2701 8.4C27.5035 8.11667 27.8035 7.88333 28.1701 7.7C28.5535 7.5 29.0285 7.4 29.5951 7.4C30.4618 7.4 31.1035 7.63333 31.5201 8.1C31.9535 8.56667 32.2535 9.25 32.4201 10.15ZM26.6451 12.4H35.9701C36.0368 11.4 35.9535 10.4417 35.7201 9.525C35.4868 8.60833 35.1035 7.79167 34.5701 7.075C34.0535 6.35833 33.3868 5.79167 32.5701 5.375C31.7535 4.94167 30.7951 4.725 29.6951 4.725C28.7118 4.725 27.8118 4.9 26.9951 5.25C26.1951 5.6 25.5035 6.08333 24.9201 6.7C24.3368 7.3 23.8868 8.01667 23.5701 8.85C23.2535 9.68333 23.0951 10.5833 23.0951 11.55C23.0951 12.55 23.2451 13.4667 23.5451 14.3C23.8618 15.1333 24.3035 15.85 24.8701 16.45C25.4368 17.05 26.1285 17.5167 26.9451 17.85C27.7618 18.1667 28.6785 18.325 29.6951 18.325C31.1618 18.325 32.4118 17.9917 33.4451 17.325C34.4785 16.6583 35.2451 15.55 35.7451 14H32.6201C32.5035 14.4 32.1868 14.7833 31.6701 15.15C31.1535 15.5 30.5368 15.675 29.8201 15.675C28.8201 15.675 28.0535 15.4167 27.5201 14.9C26.9868 14.3833 26.6951 13.55 26.6451 12.4ZM47.5506 11.55C47.5506 12.0833 47.4923 12.6 47.3756 13.1C47.2589 13.6 47.0756 14.0417 46.8256 14.425C46.5756 14.8083 46.2589 15.1167 45.8756 15.35C45.5089 15.5667 45.0589 15.675 44.5256 15.675C44.0089 15.675 43.5589 15.5667 43.1756 15.35C42.7923 15.1167 42.4756 14.8083 42.2256 14.425C41.9756 14.0417 41.7923 13.6 41.6756 13.1C41.5589 12.6 41.5006 12.0833 41.5006 11.55C41.5006 11 41.5589 10.475 41.6756 9.975C41.7923 9.475 41.9756 9.03333 42.2256 8.65C42.4756 8.26667 42.7923 7.96667 43.1756 7.75C43.5589 7.51667 44.0089 7.4 44.5256 7.4C45.0589 7.4 45.5089 7.51667 45.8756 7.75C46.2589 7.96667 46.5756 8.26667 46.8256 8.65C47.0756 9.03333 47.2589 9.475 47.3756 9.975C47.4923 10.475 47.5506 11 47.5506 11.55ZM38.0756 0.149999V18H41.4506V16.35H41.5006C41.8839 17.0667 42.4506 17.575 43.2006 17.875C43.9506 18.175 44.8006 18.325 45.7506 18.325C46.4006 18.325 47.0423 18.1917 47.6756 17.925C48.3089 17.6583 48.8756 17.25 49.3756 16.7C49.8923 16.15 50.3089 15.45 50.6256 14.6C50.9423 13.7333 51.1006 12.7083 51.1006 11.525C51.1006 10.3417 50.9423 9.325 50.6256 8.475C50.3089 7.60833 49.8923 6.9 49.3756 6.35C48.8756 5.8 48.3089 5.39167 47.6756 5.125C47.0423 4.85833 46.4006 4.725 45.7506 4.725C44.9506 4.725 44.1756 4.88333 43.4256 5.2C42.6923 5.5 42.1089 5.98333 41.6756 6.65H41.6256V0.149999H38.0756ZM57.6588 8.55V3.2H60.7088C61.1588 3.2 61.5921 3.23333 62.0088 3.3C62.4255 3.36667 62.7921 3.5 63.1088 3.7C63.4255 3.88333 63.6755 4.15 63.8588 4.5C64.0588 4.85 64.1588 5.30833 64.1588 5.875C64.1588 6.44167 64.0588 6.9 63.8588 7.25C63.6755 7.6 63.4255 7.875 63.1088 8.075C62.7921 8.25833 62.4255 8.38333 62.0088 8.45C61.5921 8.51667 61.1588 8.55 60.7088 8.55H57.6588ZM53.7338 0.149999V18H57.6588V11.6H61.7838C62.9005 11.6 63.8505 11.4417 64.6338 11.125C65.4171 10.7917 66.0505 10.3583 66.5338 9.825C67.0338 9.29167 67.3921 8.68333 67.6088 8C67.8421 7.3 67.9588 6.59167 67.9588 5.875C67.9588 5.14167 67.8421 4.43333 67.6088 3.75C67.3921 3.06667 67.0338 2.45833 66.5338 1.925C66.0505 1.39167 65.4171 0.966666 64.6338 0.65C63.8505 0.316666 62.9005 0.149999 61.7838 0.149999H53.7338ZM69.8836 9.05C69.9336 8.21667 70.1419 7.525 70.5086 6.975C70.8753 6.425 71.3419 5.98333 71.9086 5.65C72.4753 5.31667 73.1086 5.08333 73.8086 4.95C74.5253 4.8 75.2419 4.725 75.9586 4.725C76.6086 4.725 77.2669 4.775 77.9336 4.875C78.6003 4.95833 79.2086 5.13333 79.7586 5.4C80.3086 5.66667 80.7586 6.04167 81.1086 6.525C81.4586 6.99167 81.6336 7.61667 81.6336 8.4V15.125C81.6336 15.7083 81.6669 16.2667 81.7336 16.8C81.8003 17.3333 81.9169 17.7333 82.0836 18H78.4836C78.4169 17.8 78.3586 17.6 78.3086 17.4C78.2753 17.1833 78.2503 16.9667 78.2336 16.75C77.6669 17.3333 77.0003 17.7417 76.2336 17.975C75.4669 18.2083 74.6836 18.325 73.8836 18.325C73.2669 18.325 72.6919 18.25 72.1586 18.1C71.6253 17.95 71.1586 17.7167 70.7586 17.4C70.3586 17.0833 70.0419 16.6833 69.8086 16.2C69.5919 15.7167 69.4836 15.1417 69.4836 14.475C69.4836 13.7417 69.6086 13.1417 69.8586 12.675C70.1253 12.1917 70.4586 11.8083 70.8586 11.525C71.2753 11.2417 71.7419 11.0333 72.2586 10.9C72.7919 10.75 73.3253 10.6333 73.8586 10.55C74.3919 10.4667 74.9169 10.4 75.4336 10.35C75.9503 10.3 76.4086 10.225 76.8086 10.125C77.2086 10.025 77.5253 9.88333 77.7586 9.7C77.9919 9.5 78.1003 9.21667 78.0836 8.85C78.0836 8.46667 78.0169 8.16667 77.8836 7.95C77.7669 7.71667 77.6003 7.54167 77.3836 7.425C77.1836 7.29167 76.9419 7.20833 76.6586 7.175C76.3919 7.125 76.1003 7.1 75.7836 7.1C75.0836 7.1 74.5336 7.25 74.1336 7.55C73.7336 7.85 73.5003 8.35 73.4336 9.05H69.8836ZM78.0836 11.675C77.9336 11.8083 77.7419 11.9167 77.5086 12C77.2919 12.0667 77.0503 12.125 76.7836 12.175C76.5336 12.225 76.2669 12.2667 75.9836 12.3C75.7003 12.3333 75.4169 12.375 75.1336 12.425C74.8669 12.475 74.6003 12.5417 74.3336 12.625C74.0836 12.7083 73.8586 12.825 73.6586 12.975C73.4753 13.1083 73.3253 13.2833 73.2086 13.5C73.0919 13.7167 73.0336 13.9917 73.0336 14.325C73.0336 14.6417 73.0919 14.9083 73.2086 15.125C73.3253 15.3417 73.4836 15.5167 73.6836 15.65C73.8836 15.7667 74.1169 15.85 74.3836 15.9C74.6503 15.95 74.9253 15.975 75.2086 15.975C75.9086 15.975 76.4503 15.8583 76.8336 15.625C77.2169 15.3917 77.5003 15.1167 77.6836 14.8C77.8669 14.4667 77.9753 14.1333 78.0086 13.8C78.0586 13.4667 78.0836 13.2 78.0836 13V11.675ZM90.9141 15.675C90.3474 15.675 89.8641 15.5583 89.4641 15.325C89.0641 15.0917 88.7391 14.7917 88.4891 14.425C88.2557 14.0417 88.0807 13.6 87.9641 13.1C87.8641 12.6 87.8141 12.0917 87.8141 11.575C87.8141 11.0417 87.8641 10.525 87.9641 10.025C88.0641 9.525 88.2307 9.08333 88.4641 8.7C88.7141 8.31667 89.0307 8.00833 89.4141 7.775C89.8141 7.525 90.3057 7.4 90.8891 7.4C91.4557 7.4 91.9307 7.525 92.3141 7.775C92.7141 8.00833 93.0391 8.325 93.2891 8.725C93.5391 9.10833 93.7141 9.55 93.8141 10.05C93.9307 10.55 93.9891 11.0583 93.9891 11.575C93.9891 12.0917 93.9391 12.6 93.8391 13.1C93.7391 13.6 93.5641 14.0417 93.3141 14.425C93.0807 14.7917 92.7641 15.0917 92.3641 15.325C91.9807 15.5583 91.4974 15.675 90.9141 15.675ZM84.3891 5.075V22.525H87.9391V16.4H87.9891C88.4224 17.0333 88.9724 17.5167 89.6391 17.85C90.3224 18.1667 91.0641 18.325 91.8641 18.325C92.8141 18.325 93.6391 18.1417 94.3391 17.775C95.0557 17.4083 95.6474 16.9167 96.1141 16.3C96.5974 15.6833 96.9557 14.975 97.1891 14.175C97.4224 13.375 97.5391 12.5417 97.5391 11.675C97.5391 10.7583 97.4224 9.88333 97.1891 9.05C96.9557 8.2 96.5974 7.45833 96.1141 6.825C95.6307 6.19167 95.0224 5.68333 94.2891 5.3C93.5557 4.91667 92.6807 4.725 91.6641 4.725C90.8641 4.725 90.1307 4.88333 89.4641 5.2C88.7974 5.51667 88.2474 6.025 87.8141 6.725H87.7641V5.075H84.3891ZM108.372 10.15H102.597C102.614 9.9 102.664 9.61667 102.747 9.3C102.847 8.98333 103.006 8.68333 103.222 8.4C103.456 8.11667 103.756 7.88333 104.122 7.7C104.506 7.5 104.981 7.4 105.547 7.4C106.414 7.4 107.056 7.63333 107.472 8.1C107.906 8.56667 108.206 9.25 108.372 10.15ZM102.597 12.4H111.922C111.989 11.4 111.906 10.4417 111.672 9.525C111.439 8.60833 111.056 7.79167 110.522 7.075C110.006 6.35833 109.339 5.79167 108.522 5.375C107.706 4.94167 106.747 4.725 105.647 4.725C104.664 4.725 103.764 4.9 102.947 5.25C102.147 5.6 101.456 6.08333 100.872 6.7C100.289 7.3 99.8389 8.01667 99.5223 8.85C99.2056 9.68333 99.0473 10.5833 99.0473 11.55C99.0473 12.55 99.1973 13.4667 99.4973 14.3C99.8139 15.1333 100.256 15.85 100.822 16.45C101.389 17.05 102.081 17.5167 102.897 17.85C103.714 18.1667 104.631 18.325 105.647 18.325C107.114 18.325 108.364 17.9917 109.397 17.325C110.431 16.6583 111.197 15.55 111.697 14H108.572C108.456 14.4 108.139 14.7833 107.622 15.15C107.106 15.5 106.489 15.675 105.772 15.675C104.772 15.675 104.006 15.4167 103.472 14.9C102.939 14.3833 102.647 13.55 102.597 12.4ZM114.028 5.075V18H117.578V12.175C117.578 11.5917 117.636 11.05 117.753 10.55C117.869 10.05 118.061 9.61667 118.328 9.25C118.611 8.86667 118.978 8.56667 119.428 8.35C119.878 8.13333 120.428 8.025 121.078 8.025C121.294 8.025 121.519 8.04167 121.753 8.075C121.986 8.09167 122.186 8.11667 122.353 8.15V4.85C122.069 4.76667 121.811 4.725 121.578 4.725C121.128 4.725 120.694 4.79167 120.278 4.925C119.861 5.05833 119.469 5.25 119.103 5.5C118.736 5.73333 118.411 6.025 118.128 6.375C117.844 6.70833 117.619 7.075 117.453 7.475H117.403V5.075H114.028ZM126.495 13.8H123.12C123.153 14.6667 123.345 15.3917 123.695 15.975C124.061 16.5417 124.52 17 125.07 17.35C125.636 17.7 126.278 17.95 126.995 18.1C127.711 18.25 128.445 18.325 129.195 18.325C129.928 18.325 130.645 18.25 131.345 18.1C132.061 17.9667 132.695 17.725 133.245 17.375C133.795 17.025 134.236 16.5667 134.57 16C134.92 15.4167 135.095 14.7 135.095 13.85C135.095 13.25 134.978 12.75 134.745 12.35C134.511 11.9333 134.203 11.5917 133.82 11.325C133.436 11.0417 132.995 10.8167 132.495 10.65C132.011 10.4833 131.511 10.3417 130.995 10.225C130.495 10.1083 130.003 10 129.52 9.9C129.036 9.8 128.603 9.69167 128.22 9.575C127.853 9.44167 127.553 9.275 127.32 9.075C127.086 8.875 126.97 8.61667 126.97 8.3C126.97 8.03333 127.036 7.825 127.17 7.675C127.303 7.50833 127.461 7.38333 127.645 7.3C127.845 7.21667 128.061 7.16667 128.295 7.15C128.528 7.11667 128.745 7.1 128.945 7.1C129.578 7.1 130.128 7.225 130.595 7.475C131.061 7.70833 131.32 8.16667 131.37 8.85H134.745C134.678 8.05 134.47 7.39167 134.12 6.875C133.786 6.34167 133.361 5.91667 132.845 5.6C132.328 5.28333 131.736 5.05833 131.07 4.925C130.42 4.79167 129.745 4.725 129.045 4.725C128.345 4.725 127.661 4.79167 126.995 4.925C126.328 5.04167 125.728 5.25833 125.195 5.575C124.661 5.875 124.228 6.29167 123.895 6.825C123.578 7.35833 123.42 8.04167 123.42 8.875C123.42 9.44167 123.536 9.925 123.77 10.325C124.003 10.7083 124.311 11.0333 124.695 11.3C125.078 11.55 125.511 11.7583 125.995 11.925C126.495 12.075 127.003 12.2083 127.52 12.325C128.786 12.5917 129.77 12.8583 130.47 13.125C131.186 13.3917 131.545 13.7917 131.545 14.325C131.545 14.6417 131.47 14.9083 131.32 15.125C131.17 15.325 130.978 15.4917 130.745 15.625C130.528 15.7417 130.278 15.8333 129.995 15.9C129.728 15.95 129.47 15.975 129.22 15.975C128.87 15.975 128.528 15.9333 128.195 15.85C127.878 15.7667 127.595 15.6417 127.345 15.475C127.095 15.2917 126.886 15.0667 126.72 14.8C126.57 14.5167 126.495 14.1833 126.495 13.8Z" fill="#272727"/>
</svg>
