<svg width="109" height="20" viewBox="0 0 109 20" fill="none" xmlns="http://www.w3.org/2000/svg">
<path d="M3.9 16H7.02L9.64 6.12L12.22 16H15.52L19 1.7H16L13.68 11.64L11.14 1.7H8.38L5.94 11.58L3.7 1.7H0.42L3.9 16ZM24.6156 16.22C27.4756 16.22 29.2756 14.96 29.6156 12.7H26.8756C26.6956 13.58 26.0356 14.16 24.6956 14.16C23.1156 14.16 22.1756 13.16 22.0956 11.42H29.6356V10.62C29.6356 6.88 27.2356 5.3 24.5356 5.3C21.4956 5.3 19.1556 7.44 19.1556 10.74V10.9C19.1556 14.24 21.4556 16.22 24.6156 16.22ZM22.1356 9.64C22.3556 8.16 23.2356 7.3 24.5356 7.3C25.9156 7.3 26.7156 8.06 26.8156 9.64H22.1356ZM37.7739 16.22C40.3739 16.22 42.3339 14.28 42.3339 10.82V10.66C42.3339 7.2 40.3339 5.3 37.7739 5.3C36.2339 5.3 35.0139 6.18 34.4339 7.18V0.799999H31.5339V16H34.4339V14.34C34.9739 15.42 36.1539 16.22 37.7739 16.22ZM36.9139 13.96C35.3339 13.96 34.3339 12.94 34.3339 10.84V10.68C34.3339 8.58 35.3739 7.52 36.8939 7.52C38.3539 7.52 39.3939 8.56 39.3939 10.68V10.84C39.3939 12.88 38.5139 13.96 36.9139 13.96ZM44.5283 16H47.7483V10.8H49.5683C52.8283 10.8 54.9283 9.36 54.9283 6.34V6.26C54.9283 3.24 52.9483 1.7 49.4683 1.7H44.5283V16ZM47.7483 8.54V4.16H49.3883C50.9283 4.16 51.8083 4.76 51.8083 6.28V6.36C51.8083 7.78 50.9683 8.54 49.3883 8.54H47.7483ZM60.1748 14.2C59.1148 14.2 58.6548 13.7 58.6548 12.94C58.6548 11.82 59.6348 11.46 61.3148 11.46H62.4348V12.34C62.4348 13.5 61.4548 14.2 60.1748 14.2ZM59.3148 16.22C60.9548 16.22 61.8748 15.58 62.4748 14.74V16H65.2948V9.18C65.2948 6.34 63.4748 5.3 60.9148 5.3C58.3548 5.3 56.3948 6.4 56.2148 8.88H58.9548C59.0748 7.98 59.5948 7.4 60.7348 7.4C62.0548 7.4 62.4348 8.08 62.4348 9.32V9.74H61.2548C58.0548 9.74 55.8148 10.66 55.8148 13.1C55.8148 15.3 57.4148 16.22 59.3148 16.22ZM73.1639 13.96C71.5839 13.96 70.5839 12.94 70.5839 10.84V10.68C70.5839 8.58 71.6239 7.52 73.1439 7.52C74.6039 7.52 75.6439 8.56 75.6439 10.68V10.84C75.6439 12.88 74.7639 13.96 73.1639 13.96ZM67.7839 19.56H70.6839V14.4C71.2239 15.42 72.4039 16.22 74.0239 16.22C76.6239 16.22 78.5839 14.28 78.5839 10.82V10.66C78.5839 7.2 76.5839 5.3 74.0239 5.3C72.4839 5.3 71.2639 6.18 70.6839 7.18V5.54H67.7839V19.56ZM85.3383 16.22C88.1983 16.22 89.9983 14.96 90.3383 12.7H87.5983C87.4183 13.58 86.7583 14.16 85.4183 14.16C83.8383 14.16 82.8983 13.16 82.8183 11.42H90.3583V10.62C90.3583 6.88 87.9583 5.3 85.2583 5.3C82.2183 5.3 79.8783 7.44 79.8783 10.74V10.9C79.8783 14.24 82.1783 16.22 85.3383 16.22ZM82.8583 9.64C83.0783 8.16 83.9583 7.3 85.2583 7.3C86.6383 7.3 87.4383 8.06 87.5383 9.64H82.8583ZM92.2566 16H95.1566V10.76C95.1566 8.76 96.3966 8.06 98.5366 8.08V5.38C96.8366 5.4 95.8166 6.14 95.1566 7.54V5.54H92.2566V16ZM104.24 16.22C107 16.22 108.64 15.04 108.64 12.78C108.64 10.54 107.2 9.88 104.58 9.5C103.06 9.28 102.56 9.02 102.56 8.36C102.56 7.72 103.1 7.28 104.04 7.28C105.04 7.28 105.52 7.68 105.68 8.54H108.34C108.08 6.14 106.34 5.3 104.02 5.3C101.88 5.3 99.8802 6.38 99.8802 8.56C99.8802 10.6 100.96 11.4 103.74 11.82C105.24 12.04 105.86 12.34 105.86 13.06C105.86 13.78 105.34 14.2 104.22 14.2C102.96 14.2 102.5 13.66 102.38 12.72H99.6802C99.7802 14.98 101.42 16.22 104.24 16.22Z" fill="#2151FF"/>
</svg>
