<svg width="87" height="31" viewBox="0 0 87 31" fill="none" xmlns="http://www.w3.org/2000/svg">
<path d="M17.9832 8.6457H12.1C12.0317 8.20882 11.9403 7.77587 11.8261 7.34869C11.4994 6.31821 10.7207 5.79376 9.69634 5.65006C8.97537 5.54812 8.24949 5.57391 7.56292 5.90553C7.30807 6.02032 7.08895 6.20177 6.92866 6.43075C6.76838 6.65972 6.67288 6.92772 6.65225 7.20646C6.63162 7.4852 6.68663 7.76434 6.81146 8.01441C6.93629 8.26449 7.12632 8.47623 7.36149 8.62728C7.90892 8.97513 8.50211 9.24506 9.12399 9.42931C10.3019 9.79778 11.5117 10.0741 12.6957 10.4291C13.9816 10.816 15.2148 11.3367 16.2575 12.199C17.3237 13.0611 18.0357 14.285 18.2583 15.638C18.5224 17.1241 18.4487 18.5685 17.783 19.9527C17.1861 21.1908 16.2096 22.0407 15.0158 22.6659C13.4191 23.5048 11.6996 23.7873 9.91865 23.7983C8.06403 23.8094 6.24626 23.5846 4.55377 22.7764C2.15136 21.6244 0.649239 19.7673 0.231642 17.0959C0.140753 16.5088 0.10882 15.9119 0.0400391 15.2916H5.98587C6.01781 15.6048 6.04729 15.9242 6.0829 16.241C6.28679 18.0085 7.58011 18.9542 9.16821 19.1028C9.99112 19.1802 10.7944 19.1556 11.5546 18.77C12.6711 18.2037 12.579 16.6255 11.7659 16.0679C11.3088 15.747 10.8051 15.4985 10.2724 15.3309C8.98274 14.9526 7.66363 14.6812 6.37154 14.3127C5.10155 13.9443 3.8893 13.453 2.82565 12.6325C1.6441 11.7249 1.03367 10.504 0.786799 9.07067C0.553437 7.71962 0.607479 6.38577 1.14421 5.10718C1.70158 3.76706 2.73798 2.6825 4.05142 2.06487C6.69088 0.776464 9.44333 0.646273 12.2633 1.35987C13.8379 1.75904 15.2111 2.50089 16.2698 3.74754C17.2868 4.93769 17.8051 6.33541 17.9353 7.88543C17.9549 8.12862 17.9672 8.37181 17.9832 8.6457Z" fill="black"/>
<path d="M64.4545 14.777C66.4196 17.6855 68.3688 20.562 70.3499 23.4901C70.1976 23.4987 70.1043 23.5085 70.0146 23.5085C68.0016 23.5085 65.9873 23.5085 63.973 23.5085C63.8822 23.5166 63.791 23.4976 63.7109 23.4539C63.6309 23.4102 63.5657 23.3437 63.5235 23.2628C62.6023 21.8356 61.6688 20.417 60.7157 18.964C60.4333 19.2686 60.1606 19.5462 59.9113 19.8435C59.8608 19.9369 59.8406 20.0438 59.8535 20.1493C59.8535 21.1515 59.8535 22.1537 59.8535 23.156C59.8535 23.2616 59.8449 23.366 59.84 23.4851H54.2295V1.25427H59.8499V13.4469L59.926 13.4788C60.1544 13.2061 60.3841 12.9359 60.6101 12.662C61.6431 11.4006 62.6699 10.1343 63.7151 8.88278C63.8337 8.75224 63.9984 8.67295 64.1744 8.6617C66.0696 8.64573 67.9647 8.65187 69.9373 8.65187L64.4545 14.777Z" fill="black"/>
<path d="M70.093 8.67519C70.2072 8.67519 70.2932 8.66168 70.378 8.66168C72.0483 8.66168 73.7175 8.66168 75.3879 8.65554C75.6213 8.65554 75.706 8.73906 75.7748 8.94294C76.7123 11.7335 77.654 14.5224 78.5997 17.3096C78.6525 17.4656 78.709 17.6204 78.795 17.8623C79.0222 17.091 79.2261 16.4044 79.4275 15.7166C80.0867 13.4673 80.7442 11.218 81.4001 8.96874C81.4688 8.73169 81.5708 8.65308 81.8226 8.65431C83.4045 8.66782 84.9865 8.66168 86.5672 8.66168H86.9074C86.776 9.06822 86.6618 9.44774 86.5316 9.82358C85.0782 14.0585 83.624 18.293 82.1689 22.5271C81.4516 24.6151 80.743 26.7092 80.0146 28.7911C79.8677 29.1858 79.6877 29.5675 79.4767 29.9321C79.3475 30.177 79.1599 30.3863 78.9304 30.5412C78.7009 30.6961 78.4367 30.7919 78.1612 30.8201C77.7828 30.8766 77.4014 30.9107 77.019 30.922C75.2896 30.9331 73.5615 30.9282 71.8322 30.922C71.756 30.922 71.6787 30.911 71.5865 30.9036V26.4623C71.7094 26.4562 71.8224 26.4476 71.9366 26.4464C72.8098 26.439 73.6843 26.428 74.5576 26.428C75.3768 26.428 75.8902 26.0263 76.1887 25.2771C76.4159 24.7084 76.5166 24.2049 76.2489 23.576C74.7578 20.0719 73.3232 16.5444 71.869 13.0243C71.3114 11.6725 70.755 10.3214 70.1999 8.97119C70.1593 8.87785 70.1323 8.78573 70.093 8.67519Z" fill="black"/>
<path d="M34.0065 13.5967C32.3607 13.5967 30.7505 13.5967 29.1391 13.5869C29.0605 13.5869 28.9291 13.4517 28.9131 13.3633C28.6675 11.9951 27.309 11.2925 26.0243 11.8821C25.8562 11.9543 25.712 12.0727 25.6085 12.2236C25.505 12.3745 25.4465 12.5516 25.4397 12.7345C25.4041 13.1435 25.5441 13.5254 25.931 13.6581C26.6409 13.9061 27.3673 14.1039 28.1049 14.2501C29.4044 14.4957 30.7247 14.6394 31.948 15.2081C33.3851 15.8763 34.1085 17.0136 34.2104 18.5599C34.3873 21.2682 32.658 23.0135 30.258 23.5171C28.3206 23.9376 26.3122 23.9048 24.3895 23.4212C22.8346 23.0282 21.5315 22.2299 20.7614 20.74C20.4167 20.0532 20.2308 19.2976 20.2173 18.5292C20.2099 18.3352 20.2885 18.2738 20.4764 18.2738C21.9994 18.2738 23.5224 18.2738 25.0454 18.286C25.1048 18.2948 25.1611 18.318 25.2095 18.3536C25.2579 18.3891 25.2968 18.4359 25.323 18.4899C25.5895 19.7108 25.9899 20.1136 27.2145 20.3138C27.7492 20.4183 28.3029 20.3579 28.8026 20.1407C29.4928 19.8226 29.5849 18.996 28.9782 18.544C28.3715 18.092 27.6443 17.9851 26.9271 17.8832C25.6436 17.7002 24.3601 17.543 23.1429 17.0517C21.5032 16.3921 20.6864 15.17 20.598 13.4321C20.4641 10.9499 22.0854 9.18121 24.4338 8.64202C25.9806 8.28552 27.5847 8.25498 29.144 8.55236C30.7407 8.85328 32.1654 9.49195 33.1578 10.8516C33.7014 11.5818 34.0064 12.4619 34.0311 13.3719C34.0274 13.4321 34.0151 13.4984 34.0065 13.5967Z" fill="black"/>
<path d="M45.5054 1.25427H51.084V23.4974H45.5054V1.25427Z" fill="black"/>
<path d="M36.7676 8.66785H42.356V23.4901H36.7676V8.66785Z" fill="black"/>
<path d="M36.759 1.25549H42.3597V6.25314H36.759V1.25549Z" fill="black"/>
</svg>
