<svg width="137" height="49" viewBox="0 0 137 49" fill="none" xmlns="http://www.w3.org/2000/svg">
<path d="M5.2959 25.6953C6.79329 27.3066 8.21745 28.4785 9.56836 29.2109C10.9355 29.9434 12.3434 30.3096 13.792 30.3096C14.9964 30.3096 15.9567 30.0166 16.6729 29.4307C17.389 28.8447 17.7471 28.0716 17.7471 27.1113C17.7471 25.8092 16.2985 24.4014 13.4014 22.8877C13.1247 22.7412 12.9049 22.6273 12.7422 22.5459C9.92643 21.0811 7.99772 19.6732 6.95605 18.3223C5.91439 16.9714 5.39355 15.3275 5.39355 13.3906C5.39355 9.85872 6.58171 6.96973 8.95801 4.72363C11.3506 2.47754 14.4268 1.35449 18.1865 1.35449C20.1722 1.35449 22.0765 1.70443 23.8994 2.4043C25.7386 3.10417 27.472 4.1377 29.0996 5.50488L24.998 12.5605C23.7122 11.4538 22.5404 10.6318 21.4824 10.0947C20.4245 9.55762 19.4479 9.28906 18.5527 9.28906C17.5762 9.28906 16.7624 9.57389 16.1113 10.1436C15.4603 10.6969 15.1348 11.3805 15.1348 12.1943C15.1348 13.2035 16.3555 14.3346 18.7969 15.5879C19.6595 16.0273 20.3268 16.3854 20.7988 16.6621C23.3053 18.0456 25.0469 19.4616 26.0234 20.9102C27 22.3424 27.4883 24.141 27.4883 26.3057C27.4883 30.1305 26.1618 33.1904 23.5088 35.4854C20.8558 37.764 17.2507 38.9033 12.6934 38.9033C10.3008 38.9033 8.06283 38.3988 5.97949 37.3896C3.89616 36.3643 2.01628 34.8506 0.339844 32.8486L5.2959 25.6953ZM50.2061 15.1484L47.667 20.6904C46.5439 19.8929 45.5104 19.3151 44.5664 18.957C43.6224 18.5827 42.6865 18.3955 41.7588 18.3955C40.9775 18.3955 40.3265 18.5745 39.8057 18.9326C39.3011 19.2907 39.0488 19.7301 39.0488 20.251C39.0488 20.9997 39.8952 21.6995 41.5879 22.3506C42.3366 22.6273 42.9225 22.8633 43.3457 23.0586C45.7057 24.084 47.3577 25.1501 48.3018 26.2568C49.2458 27.3473 49.7178 28.7145 49.7178 30.3584C49.7178 32.9463 48.7168 35.0296 46.7148 36.6084C44.7129 38.1709 42.0436 38.9521 38.707 38.9521C36.819 38.9521 35.0124 38.6999 33.2871 38.1953C31.5781 37.707 29.918 36.9583 28.3066 35.9492L31.2119 30.041C32.8721 31.0664 34.2637 31.7907 35.3867 32.2139C36.5098 32.637 37.5677 32.8486 38.5605 32.8486C39.4232 32.8486 40.1149 32.6615 40.6357 32.2871C41.1566 31.8965 41.417 31.4001 41.417 30.7979C41.417 29.8701 40.2207 28.918 37.8281 27.9414C37.112 27.6484 36.5586 27.4206 36.168 27.2578C34.2637 26.4115 32.9128 25.4919 32.1152 24.499C31.3177 23.5062 30.9189 22.2692 30.9189 20.7881C30.9189 18.4281 31.9036 16.4668 33.873 14.9043C35.8424 13.3418 38.3734 12.5605 41.4658 12.5605C43.0283 12.5605 44.5501 12.7803 46.0312 13.2197C47.5124 13.6592 48.904 14.3021 50.2061 15.1484ZM58.1533 36.7549L51.1465 13.3418H60.1553L62.3037 23.9863C62.3363 24.1328 62.3851 24.3444 62.4502 24.6211C62.7594 26.0534 62.9303 27.2741 62.9629 28.2832C63.1419 27.6484 63.3698 26.973 63.6465 26.2568C63.9395 25.5244 64.2894 24.735 64.6963 23.8887L69.7988 13.3418H79.1494L60.0088 48.8887H50.9023L58.1533 36.7549ZM84.167 0.158203H92.9316L86.877 38H78.1367L84.167 0.158203ZM104.15 23.791L113.501 13.3418H124.463L112.402 25.3535L120.459 38H110.059L103.809 26.3545L101.953 38H93.3105L99.2432 0.158203H107.959L104.15 23.791ZM127.479 5.99316C127.479 4.72363 127.926 3.63314 128.821 2.72168C129.733 1.81022 130.831 1.35449 132.117 1.35449C133.468 1.35449 134.591 1.79395 135.486 2.67285C136.382 3.55176 136.829 4.65853 136.829 5.99316C136.829 7.31152 136.373 8.42643 135.462 9.33789C134.55 10.2493 133.436 10.7051 132.117 10.7051C130.831 10.7051 129.733 10.2493 128.821 9.33789C127.926 8.41016 127.479 7.29525 127.479 5.99316ZM122.938 38L126.819 13.3418H135.584L131.678 38H122.938Z" fill="white"/>
</svg>
