<svg width="42" height="18" viewBox="0 0 42 18" fill="none" xmlns="http://www.w3.org/2000/svg">
<path d="M18.5335 17.5508L23.3035 0H19.4775L16.5708 12.0939H16.5211L13.4902 0H9.83813L6.75752 11.9464H6.70783L3.90048 0H0L4.69548 17.5508H8.64565L11.602 5.60447H11.6517L14.6578 17.5508H18.5335ZM31.0475 8.25922V2.99888H34.0784C34.5256 2.99888 34.9562 3.03166 35.3703 3.09721C35.7844 3.16276 36.1487 3.29386 36.4634 3.4905C36.7782 3.67076 37.0266 3.93296 37.2088 4.2771C37.4075 4.62123 37.5069 5.07188 37.5069 5.62905C37.5069 6.18622 37.4075 6.63687 37.2088 6.98101C37.0266 7.32514 36.7782 7.59553 36.4634 7.79218C36.1487 7.97244 35.7844 8.09534 35.3703 8.1609C34.9562 8.22645 34.5256 8.25922 34.0784 8.25922H31.0475ZM27.147 0V17.5508H31.0475V11.2581H35.1467C36.2564 11.2581 37.2005 11.1025 37.9789 10.7911C38.7573 10.4633 39.3868 10.0372 39.8671 9.51285C40.3639 8.98846 40.72 8.39031 40.9353 7.71844C41.1672 7.03017 41.2832 6.33371 41.2832 5.62905C41.2832 4.90801 41.1672 4.21154 40.9353 3.53967C40.72 2.86779 40.3639 2.26964 39.8671 1.74525C39.3868 1.22086 38.7573 0.80298 37.9789 0.491621C37.2005 0.163874 36.2564 0 35.1467 0H27.147Z" fill="black"/>
</svg>
