<svg width="116" height="205" viewBox="0 0 116 205" fill="none" xmlns="http://www.w3.org/2000/svg">
<path d="M99.7539 2.83266C87.2539 -2.22674 86.5066 3.7073 81.3699 14.2829C76.5352 24.2367 71.5464 35.4883 65.6454 44.7613C53.4387 63.9432 44.1511 86.4203 34.1963 106.883C23.2727 129.337 6.24152 147.07 6.24152 172.402C6.24152 180.889 6.38179 188.806 4.59141 196.862C4.30755 198.14 1 207.037 1 202.104C1 196.565 4.35294 194.355 8.37695 191.136C19.2198 182.461 33.2011 177.699 39.4378 163.666C45.7619 149.437 55.6797 136.702 63.0246 123.481C66.9699 116.38 70.327 109.513 74.3812 102.418C79.6369 93.2207 85.9265 83.9317 89.7175 74.075C95.3926 59.3198 106.615 46.0432 110.975 30.7839C112.903 24.0357 117.079 17.4664 112.819 10.012C109.903 4.90911 100.754 3.27344 95.7539 1.48052" stroke="black" stroke-linecap="round" stroke-linejoin="round"/>
<path d="M74.8929 29.0352C76.2539 32.2734 77.2539 34.201 79.9417 36.8888C81.8622 38.8093 83.848 39.6816 85.9372 41.3065C87.9977 42.9092 92.2094 43.5505 94.7726 43.5505C97.5922 43.5505 100.536 42.3612 102.311 40.0794C105.254 35.3462 98.7539 34.7734 95.9997 35.3462C91.7539 36.229 89.6752 38.7478 86.5683 41.3767C81.4471 45.71 77.3994 51.1025 74.2969 57.049C70.6339 64.0698 67.0996 71.0717 63.8487 78.296C61.5899 83.3154 60.2545 89.9949 56.7539 94.2734C49.4205 103.236 47.5802 112.584 40.7539 121.773C35.4363 128.932 30.5757 138.273 26.158 145.789C24.9303 148.551 23.2539 152.273 27.2539 153.273C30.3269 153.103 31.4321 149.511 30.2539 145.273C27.7539 136.281 18.1901 141.649 12.7539 145.273" stroke="black" stroke-linecap="round" stroke-linejoin="round"/>
<path d="M42.7539 156.773C42.2539 152.773 41.948 150.723 39.7539 146.773C38.7704 145.003 36.8464 143.481 35.2539 142.773C33.6614 142.066 30.7539 142.273 29.7539 143.273" stroke="black" stroke-linecap="round" stroke-linejoin="round"/>
</svg>
