<svg width="84" height="63" viewBox="0 0 84 63" fill="none" xmlns="http://www.w3.org/2000/svg">
<path d="M79.8193 15C76 10.5 71.2998 8.15708 66.6077 6.16123C64.2251 5.14778 61.6795 4.55789 59.3222 3.44964C56.5832 2.16193 53.1624 3.26687 50.6707 1.89298C47.5901 0.194372 41.7696 1.44105 38.2753 1.44105C32.8022 1.44105 28.8253 4.20194 23.8055 5.96037C17.8709 8.03924 10.9213 14.3292 6.55308 18.6647C-0.444899 25.6103 -0.899589 38.5297 5.5918 45.7304C10.9233 51.6445 19.9062 59.3092 28.3589 60.1923C33.233 60.7015 38.0179 62 42.9299 62C47.1199 62 51.0049 59.9674 55.1229 59.3386C63.4563 58.0662 73.1056 50.5721 77.0806 43.4708C80.7403 36.9325 83 33.5763 83 25.8454C83 17.3046 79.4373 12.7495 71.8818 9" stroke="black" stroke-linecap="round" stroke-linejoin="round"/>
<path d="M45 35C46.2684 33.8303 48.4334 31.1773 50.0387 30.2037C52.8961 28.4708 54.5561 25.5775 57.0935 23.5825C58.8166 22.2277 60.6219 21.0102 62.2646 19.5668C63.0064 18.9149 63.7197 18.3236 64.5177 17.7276C66.0118 16.6116 63.6492 17.0464 62.6709 17.2984C60.6487 17.8192 58.6169 18.2769 56.5395 18.6778C54.4018 19.0904 52.3952 20.097 50.2973 20.609C49.1705 20.8841 47.0891 21.6194 46 22" stroke="black" stroke-linecap="round" stroke-linejoin="round"/>
<path d="M43.6943 9.503C42.2069 14.3526 41.3491 19.4205 39.7083 24.1572C39.0202 26.1438 38 29.2809 38 31.4843C38 33.7782 38.6731 34.8612 40.2777 35.6175C41.1687 36.0375 44.6414 36.3995 45.1812 35.0539C46.2296 32.4403 45.972 29.4692 45.972 26.5787C45.972 23.5165 45.9789 20.1857 45.6715 17.1432C45.576 16.1984 45.7882 10.8119 45.2602 10.2545C44.8743 9.84701 45.4592 8 44.8332 8C44.2659 8 44.2637 9.7301 44.2637 10.2545" stroke="black" stroke-linecap="round" stroke-linejoin="round"/>
</svg>
