<svg width="27" height="29" viewBox="0 0 27 29" fill="none" xmlns="http://www.w3.org/2000/svg">
<path d="M5.72625 11.6327V10.8115H0.5625V11.7115H4.7475C4.3275 12.154 3.93375 12.6377 3.56625 13.1627C3.20625 13.6877 2.8875 14.2465 2.61 14.839C2.3325 15.424 2.10375 16.039 1.92375 16.684C1.75125 17.3215 1.6425 17.9777 1.5975 18.6527H2.66625C2.70375 18.0302 2.80875 17.389 2.98125 16.729C3.15375 16.069 3.375 15.4277 3.645 14.8052C3.9225 14.1827 4.2375 13.5977 4.59 13.0502C4.9425 12.5027 5.32125 12.0302 5.72625 11.6327ZM13.3873 18.6527V10.6765H12.6561C12.6036 10.9765 12.5061 11.224 12.3636 11.419C12.2211 11.614 12.0448 11.7677 11.8348 11.8802C11.6323 11.9927 11.4036 12.0715 11.1486 12.1165C10.8936 12.154 10.6311 12.1727 10.3611 12.1727V12.9377H12.4311V18.6527H13.3873ZM20.5084 12.7465C20.5084 12.544 20.5459 12.3677 20.6209 12.2177C20.6959 12.0677 20.7934 11.9402 20.9134 11.8352C21.0409 11.7302 21.1909 11.6515 21.3634 11.599C21.5359 11.5465 21.7159 11.5202 21.9034 11.5202C22.2934 11.5202 22.6121 11.6252 22.8596 11.8352C23.1146 12.0377 23.2421 12.3415 23.2421 12.7465C23.2421 13.1515 23.1184 13.4665 22.8709 13.6915C22.6234 13.9165 22.3084 14.029 21.9259 14.029C21.7309 14.029 21.5471 14.0027 21.3746 13.9502C21.2021 13.8977 21.0521 13.819 20.9246 13.714C20.7971 13.609 20.6959 13.4777 20.6209 13.3202C20.5459 13.1552 20.5084 12.964 20.5084 12.7465ZM19.4959 12.7127C19.4959 13.0727 19.5971 13.4065 19.7996 13.714C20.0021 14.014 20.2721 14.2315 20.6096 14.3665C20.1596 14.524 19.8146 14.779 19.5746 15.1315C19.3346 15.4765 19.2146 15.8852 19.2146 16.3577C19.2146 16.7627 19.2821 17.119 19.4171 17.4265C19.5596 17.7265 19.7509 17.9777 19.9909 18.1802C20.2384 18.3827 20.5271 18.5327 20.8571 18.6302C21.1871 18.7277 21.5434 18.7765 21.9259 18.7765C22.2934 18.7765 22.6384 18.724 22.9609 18.619C23.2834 18.514 23.5609 18.3602 23.7934 18.1577C24.0334 17.9477 24.2209 17.6927 24.3559 17.3927C24.4984 17.0927 24.5696 16.7477 24.5696 16.3577C24.5696 15.8627 24.4534 15.4465 24.2209 15.109C23.9884 14.764 23.6321 14.5165 23.1521 14.3665C23.4896 14.2165 23.7559 13.9952 23.9509 13.7027C24.1534 13.4027 24.2546 13.0727 24.2546 12.7127C24.2546 12.4577 24.2096 12.2102 24.1196 11.9702C24.0296 11.7227 23.8871 11.5052 23.6921 11.3177C23.5046 11.1227 23.2571 10.969 22.9496 10.8565C22.6421 10.7365 22.2709 10.6765 21.8359 10.6765C21.5284 10.6765 21.2321 10.7215 20.9471 10.8115C20.6696 10.9015 20.4221 11.0327 20.2046 11.2052C19.9871 11.3777 19.8146 11.5915 19.6871 11.8465C19.5596 12.094 19.4959 12.3827 19.4959 12.7127ZM20.2271 16.4027C20.2271 16.1702 20.2684 15.9602 20.3509 15.7727C20.4409 15.5852 20.5609 15.424 20.7109 15.289C20.8684 15.154 21.0484 15.0527 21.2509 14.9852C21.4609 14.9102 21.6821 14.8727 21.9146 14.8727C22.1396 14.8727 22.3496 14.914 22.5446 14.9965C22.7471 15.0715 22.9234 15.1765 23.0734 15.3115C23.2234 15.4465 23.3396 15.6077 23.4221 15.7952C23.5121 15.9752 23.5571 16.174 23.5571 16.3915C23.5571 16.6165 23.5159 16.8227 23.4334 17.0102C23.3584 17.1977 23.2459 17.3627 23.0959 17.5052C22.9534 17.6402 22.7809 17.749 22.5784 17.8315C22.3834 17.9065 22.1659 17.944 21.9259 17.944C21.4309 17.944 21.0221 17.809 20.6996 17.539C20.3846 17.2615 20.2271 16.8827 20.2271 16.4027Z" fill="black"/>
<path d="M10.8049 22.2271L9.98374 22.2163L9.91587 27.3796L10.8158 27.3914L10.8708 23.2068C11.3077 23.6325 11.7863 24.0326 12.3064 24.407C12.8266 24.7739 13.3811 25.0999 13.9699 25.3852C14.5512 25.6704 15.1632 25.9072 15.8058 26.0956C16.4409 26.2765 17.0957 26.3939 17.77 26.4477L17.7841 25.3791C17.1621 25.3334 16.5223 25.22 15.8647 25.0388C15.207 24.8577 14.5687 24.628 13.9498 24.3498C13.331 24.0642 12.7502 23.7415 12.2074 23.3819C11.6645 23.0222 11.1971 22.6373 10.8049 22.2271ZM17.925 14.6589L9.94945 14.5541L9.93984 15.2853C10.2391 15.3417 10.4853 15.4425 10.6784 15.5875C10.8715 15.7326 11.023 15.9108 11.1327 16.1223C11.2425 16.3262 11.3183 16.556 11.3599 16.8116C11.394 17.067 11.4093 17.3298 11.4058 17.5997L12.1707 17.6098L12.1979 15.54L17.9124 15.6151L17.925 14.6589ZM12.1129 7.46084C11.9104 7.45818 11.7346 7.41836 11.5856 7.3414C11.4366 7.26443 11.3104 7.16526 11.207 7.04389C11.1037 6.91503 11.0269 6.764 10.9767 6.59083C10.9265 6.41765 10.9026 6.23732 10.9051 6.04984C10.9102 5.65987 11.0194 5.34253 11.2326 5.09781C11.4384 4.8455 11.7438 4.722 12.1488 4.72732C12.5538 4.73265 12.8671 4.86053 13.0888 5.11096C13.3106 5.3614 13.4189 5.67785 13.4139 6.06032C13.4113 6.2553 13.3827 6.43869 13.3279 6.61048C13.2731 6.78228 13.1924 6.93123 13.0858 7.05734C12.9791 7.18345 12.8465 7.28296 12.688 7.35589C12.5221 7.42871 12.3303 7.4637 12.1129 7.46084ZM12.0658 8.47281C12.4258 8.47754 12.7608 8.38068 13.071 8.18224C13.3736 7.9837 13.5946 7.71658 13.7341 7.38089C13.8856 7.83292 14.1361 8.18124 14.4854 8.42585C14.8272 8.67037 15.2343 8.79573 15.7068 8.80194C16.1118 8.80726 16.4689 8.74445 16.7781 8.61351C17.08 8.47496 17.3337 8.28703 17.5393 8.04971C17.7451 7.8049 17.8989 7.51814 18.0007 7.18945C18.1025 6.86076 18.156 6.50518 18.161 6.12272C18.1658 5.75525 18.1178 5.40959 18.0171 5.08574C17.9163 4.76188 17.7663 4.48239 17.5668 4.24724C17.36 4.00451 17.1075 3.81367 16.8093 3.67474C16.5112 3.52831 16.1672 3.45253 15.7772 3.4474C15.2822 3.4409 14.8645 3.55167 14.524 3.77971C14.1759 4.00765 13.9238 4.36062 13.7675 4.83861C13.6219 4.49917 13.4042 4.23003 13.1143 4.0312C12.817 3.82478 12.4883 3.7192 12.1284 3.71447C11.8734 3.71111 11.6253 3.75286 11.3842 3.8397C11.1355 3.92643 10.9161 4.06606 10.7261 4.25858C10.5286 4.4435 10.3717 4.68896 10.2551 4.99496C10.1311 5.30085 10.0662 5.67128 10.0605 6.10624C10.0565 6.41372 10.0976 6.71053 10.1838 6.99669C10.2701 7.27535 10.3981 7.52455 10.5678 7.7443C10.7374 7.96405 10.9488 8.13935 11.2022 8.27019C11.448 8.40093 11.7358 8.46847 12.0658 8.47281ZM15.7651 7.79012C15.5326 7.78706 15.3232 7.74306 15.1368 7.6581C14.9505 7.56564 14.7908 7.44353 14.6578 7.29177C14.5249 7.13251 14.426 6.9512 14.3612 6.74783C14.289 6.53686 14.2544 6.31514 14.2574 6.08266C14.2604 5.85767 14.3044 5.64823 14.3894 5.45434C14.4671 5.25284 14.5744 5.07798 14.7114 4.92977C14.8483 4.78156 15.0111 4.66744 15.1997 4.58741C15.3808 4.49978 15.5801 4.4574 15.7976 4.46026C16.0226 4.46322 16.2283 4.50717 16.4147 4.59213C16.6012 4.66959 16.7647 4.78425 16.9052 4.93611C17.0383 5.08037 17.1448 5.25428 17.2246 5.45785C17.2971 5.65382 17.3317 5.87179 17.3286 6.11177C17.322 6.60673 17.1817 7.01367 16.9075 7.33259C16.6259 7.64392 16.2451 7.79643 15.7651 7.79012Z" fill="black"/>
</svg>
