<svg width="30" height="30" viewBox="0 0 30 30" fill="none" xmlns="http://www.w3.org/2000/svg">
<rect width="30" height="30" rx="2" fill="white"/>
<path fill-rule="evenodd" clip-rule="evenodd" d="M15 17C13.8954 17 13 16.1046 13 15C13 13.8954 13.8954 13 15 13C16.1046 13 17 13.8954 17 15C17 16.1046 16.1046 17 15 17Z" fill="#CCCCCC"/>
<path fill-rule="evenodd" clip-rule="evenodd" d="M8 17C6.89543 17 6 16.1046 6 15C6 13.8954 6.89543 13 8 13C9.10457 13 10 13.8954 10 15C10 16.1046 9.10457 17 8 17Z" fill="#CCCCCC"/>
<path fill-rule="evenodd" clip-rule="evenodd" d="M22 17C20.8954 17 20 16.1046 20 15C20 13.8954 20.8954 13 22 13C23.1046 13 24 13.8954 24 15C24 16.1046 23.1046 17 22 17Z" fill="#CCCCCC"/>
</svg>
