<svg width="16" height="16" viewBox="0 0 16 16" fill="none" xmlns="http://www.w3.org/2000/svg">
<path d="M13.1278 10.3866C12.384 10.3866 11.7083 10.665 11.1982 11.1185L5.70748 8.38222C5.72936 8.24257 5.74409 8.10067 5.74409 7.95486C5.74409 7.8728 5.73862 7.79198 5.73147 7.71156L11.2744 4.94978C11.7748 5.36357 12.421 5.61406 13.1281 5.61406C14.7141 5.61406 16 4.35749 16 2.80723C16 1.25698 14.7141 0 13.1281 0C11.5416 0 10.2557 1.25678 10.2557 2.80723C10.2557 2.89279 10.2612 2.97711 10.269 3.0606L4.73319 5.8191C4.23195 5.40141 3.58277 5.14783 2.87236 5.14783C1.28614 5.14783 0 6.40461 0 7.95486C0 9.50511 1.28614 10.7619 2.87236 10.7619C3.51207 10.7619 4.10064 10.555 4.57789 10.2095L10.2633 13.0424C10.2605 13.0926 10.2555 13.1422 10.2555 13.193C10.2555 14.7434 11.5414 16 13.1278 16C14.7139 16 15.9998 14.7434 15.9998 13.193C16 11.6431 14.7139 10.3866 13.1278 10.3866Z" fill="#272727"/>
</svg>
