<svg width="246" height="262" viewBox="0 0 246 262" fill="none" xmlns="http://www.w3.org/2000/svg">
<path d="M110.543 63.5641C109.175 75.1921 108.336 84.9671 106.903 96.5891C105.549 99.6659 93.5391 90.5645 92.0427 89.0641C89.2781 86.2921 85.9902 82.1943 83.1342 79.5132C80.8238 77.3442 78.7612 75.3835 76.437 73.2771C73.5024 70.6175 77.7391 78.3924 78.0467 79.5132C80.9596 90.13 82.3252 101.643 87.5867 111.472C89.2475 114.575 87.2411 114.965 84.8583 115.564C81.6143 116.381 77.0169 117.621 73.7929 118.564C63.5391 121.564 55.4526 124.141 46.2786 126.584C38.5163 128.651 29.0391 131.064 21.5409 132.564C19.688 132.935 2.27043 135.981 8.4435 137.916C16.3934 140.409 26.2483 141.255 34.5391 142.064C46.2769 143.211 58.1142 145.058 69.081 148.969C72.0165 150.016 76.0329 151.035 79.0391 151.564C81.7251 152.038 84.0532 152.964 86.6487 153.569C88.3284 153.961 86.046 159.743 84.8583 163.03C83.0391 168.064 82.1709 173.636 80.0407 178.202C77.5391 183.564 75.5566 189.12 73.7929 193.846C70.5391 202.564 79.8724 194.728 81.8961 192.496C88.193 185.548 94.7518 178.387 100.039 170.564C102.599 166.777 106.645 164.758 106.995 171.865C107.154 175.113 108.218 178.397 108.384 181.771C108.82 190.64 111.426 200.599 112.467 209.788C112.899 213.599 113.374 216.943 114.54 220.563C115.99 225.067 115.54 226.563 116.608 231.563C118.158 238.815 119.404 261.47 119.04 254.063C118.96 252.446 119.971 250.578 120.54 249.063C122.04 245.063 121.404 243.997 122.04 241.063C123.779 233.034 124.01 224.735 126.04 217.063C127.712 210.743 129.124 203.418 130.782 196.959C132.04 192.063 132.119 186.063 133.54 181.771C135.962 174.452 135.924 168.889 135.54 161.063C135.436 158.954 135.355 152.231 138.153 154.195C140.978 156.178 142.04 159.563 145.311 162.163C148.735 164.885 152.401 168.135 156.04 170.563C158.759 172.378 161.615 174.956 163.217 177.722C164.588 180.091 163.549 175.649 163.217 174.563C161.994 170.563 161.172 168.481 160.107 165.445C157.589 158.262 152.22 145.968 161.994 142.648C168.779 140.344 177.071 135.555 183.04 131.563C189.519 127.229 194.855 124.171 202.01 121.636C210.417 118.656 218.853 115.735 227.233 112.727C230.381 111.598 233.413 109.993 236.509 108.713C238.847 107.746 236.932 107.803 235.54 107.872C232.318 108.03 229.069 107.725 226.092 107.872C214.997 108.417 203.515 109.523 192.54 110.063C182.724 110.545 173.429 110.46 163.543 110.946C162.478 110.999 152.867 111.959 152.819 110.972C152.727 109.112 155.205 104.889 155.945 103.2C157.54 99.5629 159.235 95.0505 160.54 91.6779C162.689 86.121 163.543 79.5629 165.801 74.2975C168.705 67.5274 164.165 73.6832 162.54 75.0629C154.877 81.5678 150.51 86.41 143.6 91.6779C141.376 93.3736 135.04 100.063 133.313 101.606C131.816 102.943 131.341 98.2048 131.291 97.1947L130.296 76.9449C129.686 64.5244 127.391 51.4358 125.54 39.0834C124.461 31.8885 122.842 25.2529 121.542 18.0634C120.975 14.9231 117.048 0.00397091 117.543 10.0641C117.984 19.0325 114.494 29.9305 113.543 39.0834C112.68 47.3888 111.543 55.0641 110.543 63.5641Z" stroke="black" stroke-linecap="round" stroke-linejoin="round"/>
<path d="M127.583 59.0615C127.767 62.7041 128.034 66.7963 127.825 70.4289C127.575 74.7666 127.612 78.622 127.031 82.931C126.33 88.128 125.963 93.9737 124.845 99.4685C124.123 103.015 122.501 106.46 121.783 109.738C121.238 112.227 120.144 114.801 119.399 117.291C118.495 120.31 118.079 123.562 115.531 125.817C112.189 128.774 111.495 125.117 113.952 123.064C115.429 121.385 118.655 119.35 120.462 118.026C121.457 117.297 125.175 114.995 126.702 117.893C127.87 122.44 125.646 127.089 123.063 131.43C122.51 132.36 116.984 142.675 113.952 141.17C111.039 138.453 124.529 126.844 128.035 130.645C129.804 132.564 128.115 136.722 127.397 138.453C126.914 139.618 124.994 143.06 121.971 144.105C119.979 144.612 117.039 143.064 119.936 142.613C121.095 142.432 125.661 142.851 125.988 147.485C126.314 152.119 126.078 154.065 126.226 158.699C126.397 164.046 126.445 166.413 125.121 174.726C123.797 183.04 129.209 185.926 129.103 180.927" stroke="black" stroke-linecap="round" stroke-linejoin="round"/>
<path d="M174.809 129.729C179.618 127.645 184.087 124.693 188.742 122.366" stroke="black" stroke-linecap="round" stroke-linejoin="round"/>
</svg>
