<svg width="13" height="16" viewBox="0 0 13 16" fill="none" xmlns="http://www.w3.org/2000/svg">
<path d="M1.84724 14.516C1.94376 15.3312 2.70171 16 3.53375 16H9.46694C10.2994 16 11.0579 15.3312 11.1536 14.516L12.39 4.01294H0.612305L1.84724 14.516ZM9.24767 5.36254C9.2727 5.08308 9.519 4.87784 9.79895 4.9002C10.0807 4.92415 10.2892 5.16877 10.2667 5.44764L9.54183 13.8884C9.5186 14.1655 9.26949 14.3717 8.99115 14.348C8.709 14.3254 8.50074 14.0812 8.52396 13.8033L9.24767 5.36254ZM5.99041 5.4039C5.99041 5.12523 6.21889 4.89802 6.49944 4.89802C6.78259 4.89802 7.01068 5.12504 7.01068 5.4039V13.8457C7.01068 14.1243 6.78259 14.3497 6.49944 14.3497C6.21889 14.3497 5.99041 14.1243 5.99041 13.8457V5.4039ZM3.20193 4.9002C3.48248 4.87784 3.72919 5.08308 3.75322 5.36254L4.47652 13.8033C4.50155 14.0812 4.29169 14.3254 4.01234 14.348C3.73019 14.3717 3.48268 14.1655 3.45965 13.8884L2.73475 5.44764C2.71312 5.16877 2.92078 4.92415 3.20193 4.9002Z" fill="black"/>
<path d="M8.42279 0.987605C8.4348 0.933574 8.44301 0.877761 8.44301 0.817793V0.776428C8.44281 0.349125 8.08897 0 7.65683 0H5.88843C5.45669 0 5.10205 0.349125 5.10205 0.77623V0.817595C5.10205 0.877563 5.11126 0.933376 5.12288 0.987407H8.42279V0.987605Z" fill="black"/>
<path d="M11.7581 1.68134H1.24175C0.520849 1.69202 0.00300374 2.11834 0 2.77799V3.2433H13V2.77799C12.9958 2.11834 12.4777 1.69202 11.7581 1.68134Z" fill="black"/>
</svg>
