<svg width="15" height="19" viewBox="0 0 15 19" fill="none" xmlns="http://www.w3.org/2000/svg">
<path d="M2.13098 17.2378C2.24235 18.2058 3.1169 19 4.07695 19H10.9229C11.8834 19 12.7587 18.2058 12.8691 17.2378L14.2957 4.76538H0.706055L2.13098 17.2378ZM10.6699 6.36803C10.6988 6.03617 10.983 5.79245 11.306 5.819C11.6311 5.84744 11.8717 6.13794 11.8458 6.46909L11.0094 16.4925C10.9826 16.8215 10.6951 17.0664 10.3739 17.0382C10.0484 17.0114 9.80809 16.7214 9.83489 16.3914L10.6699 6.36803ZM6.91156 6.41715C6.91156 6.08623 7.17519 5.81642 7.4989 5.81642C7.82562 5.81642 8.08879 6.08599 8.08879 6.41715V16.4417C8.08879 16.7726 7.82562 17.0403 7.4989 17.0403C7.17519 17.0403 6.91156 16.7726 6.91156 16.4417V6.41715ZM3.69409 5.819C4.0178 5.79245 4.30246 6.03617 4.33019 6.36803L5.16476 16.3914C5.19365 16.7214 4.9515 17.0114 4.62918 17.0382C4.30362 17.0664 4.01803 16.8215 3.99146 16.4925L3.15503 6.46909C3.13008 6.13794 3.36968 5.84744 3.69409 5.819Z" fill="black"/>
<path d="M9.71883 1.17278C9.73269 1.10862 9.74216 1.04234 9.74216 0.971129V0.922008C9.74193 0.414587 9.33366 0 8.83503 0H6.79457C6.29641 0 5.88721 0.414586 5.88721 0.921773V0.970894C5.88721 1.04211 5.89784 1.10838 5.91124 1.17255H9.71883V1.17278Z" fill="black"/>
<path d="M13.567 1.99655H1.43279C0.60098 2.00924 0.00346586 2.51549 0 3.29883V3.85138H15V3.29883C14.9951 2.51549 14.3974 2.00924 13.567 1.99655Z" fill="black"/>
</svg>
