<?xml version="1.0" encoding="UTF-8"?>
<svg width="32px" height="32px" viewBox="0 0 32 32" version="1.1" xmlns="http://www.w3.org/2000/svg" xmlns:xlink="http://www.w3.org/1999/xlink">
    <!-- Generator: Sketch 52.1 (67048) - http://www.bohemiancoding.com/sketch -->
    <title>Shape</title>
    <desc>Created with Sketch.</desc>
    <g id="Page-1" stroke="none" stroke-width="1" fill="none" fill-rule="evenodd">
        <g id="noun_upload-image_428749" fill="#CCCCCC" fill-rule="nonzero">
            <g id="Group">
                <path d="M10.6264889,5.37351111 L11.8172444,6.56426667 L15.1576889,3.22382222 L15.1576889,15.2796444 L16.8419556,15.2796444 L16.8419556,3.22382222 L20.1824,6.56426667 L21.3731556,5.37351111 L15.9996444,0 L10.6264889,5.37351111 Z M26.5116444,10.4152889 L26.5116444,12.0992 L30.3153778,12.0992 L30.3153778,15.5217778 L20.0213333,25.4840889 L11.9352889,17.8168889 L1.68426667,29.0097778 L1.68426667,12.0992 L5.48693333,12.0992 L5.48693333,10.4152889 L0,10.4152889 L0,32 L32,32 L32,10.4152889 L26.5116444,10.4152889 Z M21.2448,26.6439111 L30.3153778,17.8656 L30.3153778,30.3160889 L25.1171556,30.3160889 L21.2448,26.6439111 Z M12.0199111,20.2179556 L22.6695111,30.3160889 L2.77191111,30.3160889 L12.0199111,20.2179556 Z" id="Shape"></path>
            </g>
        </g>
    </g>
</svg>