<svg width="52" height="52" viewBox="0 0 52 52" fill="none" xmlns="http://www.w3.org/2000/svg">
<path fill-rule="evenodd" clip-rule="evenodd" d="M40.5321 11.4679C41.3782 12.3141 41.3782 13.6859 40.5321 14.532L14.5321 40.532C13.6859 41.3782 12.3141 41.3782 11.4679 40.532C10.6218 39.6859 10.6218 38.3141 11.4679 37.4679L37.4679 11.4679C38.3141 10.6218 39.6859 10.6218 40.5321 11.4679Z" fill="white"/>
<path fill-rule="evenodd" clip-rule="evenodd" d="M11.4679 11.4679C12.3141 10.6218 13.6859 10.6218 14.5321 11.4679L40.5321 37.4679C41.3782 38.3141 41.3782 39.6859 40.5321 40.532C39.6859 41.3782 38.3141 41.3782 37.4679 40.532L11.4679 14.532C10.6218 13.6859 10.6218 12.3141 11.4679 11.4679Z" fill="white"/>
</svg>
